<?xml version="1.0" encoding="UTF-8"?>
<svg version="1.1" xmlns="http://www.w3.org/2000/svg" width="812" height="571">
<path d="M0 0 C2.64 0 5.28 0 8 0 C8.33 0.99 8.66 1.98 9 3 C10.32303717 3.3721042 11.65737935 3.70630173 13 4 C14.17635297 6.35270593 14.13359359 7.820752 14.125 10.4375 C14.12757813 11.21996094 14.13015625 12.00242187 14.1328125 12.80859375 C14 15 14 15 13 18 C12.01 18.33 11.02 18.66 10 19 C9.67 19.99 9.34 20.98 9 22 C6.9375 23.1875 6.9375 23.1875 5 24 C5.99 24.33 6.98 24.66 8 25 C8 25.66 8 26.32 8 27 C8.99 26.67 9.98 26.34 11 26 C15.2603909 26.91294091 18.1742376 27.63599715 21 31 C21.70125 31.433125 22.4025 31.86625 23.125 32.3125 C25.701036 34.6309324 25.70092534 36.63541004 26 40 C26.99 40.33 27.98 40.66 29 41 C30.47666292 44.49029418 30.07164685 48.27436386 30 52 C30.66 52 31.32 52 32 52 C33.25361208 55.76083625 33.32332165 59.39116046 33.5 63.31640625 C33.54060547 64.12867172 33.58121094 64.94093719 33.62304688 65.77781677 C33.79673061 69.25351645 33.9606157 72.72966049 34.125 76.20581055 C34.24638801 78.74286734 34.37303569 81.27962341 34.5 83.81640625 C34.55317383 85.0008004 34.55317383 85.0008004 34.60742188 86.2091217 C34.73201595 90.23575925 34.73201595 90.23575925 36 94 C36 96 36 98 36 100 C36.1554126 100.7000415 36.3108252 101.40008301 36.47094727 102.12133789 C37.21176055 106.15222367 37.30976169 110.15598274 37.46484375 114.24609375 C37.54335117 116.07097512 37.62213575 117.89584458 37.70117188 119.72070312 C37.82079136 122.58199135 37.93772776 125.44332803 38.04956055 128.30493164 C38.15952285 131.07736522 38.28024157 133.84917192 38.40234375 136.62109375 C38.44777565 137.8963517 38.44777565 137.8963517 38.49412537 139.19737244 C38.7058666 143.84227319 39.39583494 147.59489921 41 152 C41.30297852 154.40600586 41.30297852 154.40600586 41.37890625 156.71484375 C41.41306641 157.56626953 41.44722656 158.41769531 41.48242188 159.29492188 C41.50884766 160.16697266 41.53527344 161.03902344 41.5625 161.9375 C41.80728547 170.51816771 41.80728547 170.51816771 43 179 C43.66 179.33 44.32 179.66 45 180 C45 182.31 45 184.62 45 187 C45.66 187 46.32 187 47 187 C47 186.01 47 185.02 47 184 C47.66 183.67 48.32 183.34 49 183 C49.77043342 181.22445679 49.77043342 181.22445679 50.375 179.0625 C51.98502798 173.92692359 53.95381007 168.97525368 56 164 C56.66 164 57.32 164 58 164 C58.03738281 163.32453125 58.07476562 162.6490625 58.11328125 161.953125 C58.21189453 160.61507812 58.21189453 160.61507812 58.3125 159.25 C58.37050781 158.36828125 58.42851562 157.4865625 58.48828125 156.578125 C59.07075917 153.64350341 60.194383 152.33501256 62 150 C62.49218085 147.94638255 62.49218085 147.94638255 62.5625 145.875 C63 142 63 142 65 140 C65.60602665 137.63804589 65.60602665 137.63804589 66 135 C66.77777778 130.22222222 66.77777778 130.22222222 69 128 C69.60713803 126.14516546 70.14131052 124.26578615 70.625 122.375 C71.01558594 120.87066406 71.01558594 120.87066406 71.4140625 119.3359375 C71.60742188 118.56507813 71.80078125 117.79421875 72 117 C72.66 117 73.32 117 74 117 C74.33 114.03 74.66 111.06 75 108 C76.485 107.505 76.485 107.505 78 107 C78.12375 105.700625 78.2475 104.40125 78.375 103.0625 C78.5859375 100.84765625 78.5859375 100.84765625 79 99 C79.66 98.67 80.32 98.34 81 98 C81.90725434 95.88672575 81.90725434 95.88672575 82.625 93.4375 C82.88539063 92.61121094 83.14578125 91.78492188 83.4140625 90.93359375 C83.60742188 90.29550781 83.80078125 89.65742188 84 89 C84.66 89 85.32 89 86 89 C86.268125 88.360625 86.53625 87.72125 86.8125 87.0625 C88 85 88 85 91 84 C90.99214478 82.78884521 90.99214478 82.78884521 90.98413086 81.55322266 C90.96340071 77.91048962 90.95035251 74.26776898 90.9375 70.625 C90.92912109 69.35398437 90.92074219 68.08296875 90.91210938 66.7734375 C90.90727539 64.95585937 90.90727539 64.95585937 90.90234375 63.1015625 C90.89448853 61.42054443 90.89448853 61.42054443 90.88647461 59.70556641 C91 57 91 57 92 55 C92.66 55 93.32 55 94 55 C94.01417969 54.43152344 94.02835938 53.86304688 94.04296875 53.27734375 C94.42786185 47.04623658 95.88634901 43.7156487 100 39 C100.66 39 101.32 39 102 39 C102.061875 38.1646875 102.061875 38.1646875 102.125 37.3125 C103.45151274 33.80671632 106.09126944 32.26880984 109 30 C109.556875 29.401875 110.11375 28.80375 110.6875 28.1875 C112 27 112 27 115 27 C115.33 26.01 115.66 25.02 116 24 C118.31 23.67 120.62 23.34 123 23 C123 22.01 123 21.02 123 20 C128.34405079 18.80107174 133.48270069 18.81608632 138.9375 18.8125 C139.91396484 18.80025391 140.89042969 18.78800781 141.89648438 18.77539062 C147.00056601 18.76500944 151.22437274 18.95561134 156 21 C156 21.66 156 22.32 156 23 C158.475 23.495 158.475 23.495 161 24 C161.33 24.99 161.66 25.98 162 27 C162.78375 27.0825 163.5675 27.165 164.375 27.25 C167 28 167 28 168.3125 30.0625 C168.539375 30.701875 168.76625 31.34125 169 32 C169.66 32 170.32 32 171 32 C171 32.66 171 33.32 171 34 C171.66 34 172.32 34 173 34 C176.76 39.01333333 176.76 39.01333333 177.5625 42.3125 C177.706875 42.869375 177.85125 43.42625 178 44 C178.99 44.33 179.98 44.66 181 45 C181.33 47.31 181.66 49.62 182 52 C182.99 52.33 183.98 52.66 185 53 C185.87890625 54.85546875 185.87890625 54.85546875 186.5625 57.1875 C186.80742188 58.00605469 187.05234375 58.82460937 187.3046875 59.66796875 C187.53414062 60.43753906 187.76359375 61.20710938 188 62 C188.5878125 63.485 188.5878125 63.485 189.1875 65 C190.28047885 69.03561421 190.16616487 72.84587826 190 77 C190.66 77 191.32 77 192 77 C192.33569297 78.62451419 192.6684796 80.24962917 193 81.875 C193.185625 82.77992188 193.37125 83.68484375 193.5625 84.6171875 C194 87 194 87 194 89 C194.64066406 88.855625 195.28132812 88.71125 195.94140625 88.5625 C201.08040377 87.45964509 205.74695843 86.77160689 211 87 C211.33 86.01 211.66 85.02 212 84 C213.98 84 215.96 84 218 84 C218 83.01 218 82.02 218 81 C217.01 81 216.02 81 215 81 C214.97104775 77.70835171 214.9532177 74.41673601 214.9375 71.125 C214.92912109 70.18785156 214.92074219 69.25070313 214.91210938 68.28515625 C214.90888672 67.38925781 214.90566406 66.49335937 214.90234375 65.5703125 C214.89710693 64.74289551 214.89187012 63.91547852 214.88647461 63.06298828 C215 61 215 61 216 59 C216.66 59 217.32 59 218 59 C218.33 55.7 218.66 52.4 219 49 C220.485 48.505 220.485 48.505 222 48 C222.33 46.02 222.66 44.04 223 42 C223.66 42 224.32 42 225 42 C225.268125 41.21625 225.53625 40.4325 225.8125 39.625 C227 37 227 37 230 35 C230.33 34.01 230.66 33.02 231 32 C231.99 31.67 232.98 31.34 234 31 C234.53625 30.4225 235.0725 29.845 235.625 29.25 C238.47790741 26.54724562 241.50914982 24.95702152 244.9765625 23.1484375 C247.13577788 22.04150812 247.13577788 22.04150812 249 20 C252.5919305 18.66965537 256.21470013 18.92720577 260 19 C260.33 18.34 260.66 17.68 261 17 C264.9663817 15.67787277 269.08961137 15.0467199 272.94921875 16.97265625 C273.62597656 17.31167969 274.30273438 17.65070313 275 18 C276.45380356 18.23789513 277.9128454 18.44543715 279.375 18.625 C283.23587021 19.43146467 284.96662947 20.56263923 287.375 23.6875 C291.7899651 30.50616833 293.4934036 35.94107457 293 44 C292.34 44.33 291.68 44.66 291 45 C290.40103907 47.30710878 290.04345035 49.61688718 289.66015625 51.96875 C289.44230469 52.6390625 289.22445312 53.309375 289 54 C287.515 54.495 287.515 54.495 286 55 C285.67 57.31 285.34 59.62 285 62 C284.01 62 283.02 62 282 62 C281.896875 63.11375 281.79375 64.2275 281.6875 65.375 C281.460625 66.57125 281.23375 67.7675 281 69 C279.515 69.99 279.515 69.99 278 71 C277.67 71.99 277.34 72.98 277 74 C276.01 74 275.02 74 274 74 C274 74.99 274 75.98 274 77 C274.7425 76.814375 275.485 76.62875 276.25 76.4375 C278.94990963 76.00796892 280.44631077 76.14877026 283 77 C283 77.66 283 78.32 283 79 C288.28 79 293.56 79 299 79 C299 78.01 299 77.02 299 76 C299.639375 75.896875 300.27875 75.79375 300.9375 75.6875 C301.618125 75.460625 302.29875 75.23375 303 75 C303.33 74.01 303.66 73.02 304 72 C306.31 71.67 308.62 71.34 311 71 C311 70.01 311 69.02 311 68 C311.969375 67.71125 312.93875 67.4225 313.9375 67.125 C317.10664203 66.35785318 317.10664203 66.35785318 318 64 C322.2160713 61.68116078 326.64324426 59.79939282 331.046875 57.8671875 C332.37879485 57.27581509 333.69654864 56.65172568 335 56 C336.83128771 55.90391392 338.66619959 55.87017421 340.5 55.875 C341.4796875 55.87242188 342.459375 55.86984375 343.46875 55.8671875 C346 56 346 56 348 57 C348 57.66 348 58.32 348 59 C348.804375 59.28875 349.60875 59.5775 350.4375 59.875 C353 61 353 61 354 63 C354.0952699 64.47668337 354.12985959 65.95775457 354.125 67.4375 C354.12757813 68.21996094 354.13015625 69.00242187 354.1328125 69.80859375 C353.95297152 72.77596988 353.30569735 74.62093529 351.4375 76.9375 C346.89587703 80.78041174 341.47849619 82.80860152 336 85 C334.515 85.99 334.515 85.99 333 87 C332.01 87 331.02 87 330 87 C329.67 87.99 329.34 88.98 329 90 C325.9375 91.1875 325.9375 91.1875 323 92 C323 92.66 323 93.32 323 94 C320.03 94.495 320.03 94.495 317 95 C317 95.99 317 96.98 317 98 C316.34 98.33 315.68 98.66 315 99 C315.45375 99.721875 315.9075 100.44375 316.375 101.1875 C317.86465954 103.76575689 318.9570585 106.21882268 320 109 C320.37125 109.78375 320.7425 110.5675 321.125 111.375 C322.22223521 114.66670564 322.13512942 117.55419977 322 121 C322.66 121.33 323.32 121.66 324 122 C324.91981591 125.35481552 325.12816395 128.5462254 325.1328125 132.01171875 C325.13410156 132.93404297 325.13539063 133.85636719 325.13671875 134.80664062 C325.13285156 135.75732422 325.12898437 136.70800781 325.125 137.6875 C325.12886719 138.64978516 325.13273438 139.61207031 325.13671875 140.60351562 C325.13542969 141.52197266 325.13414062 142.44042969 325.1328125 143.38671875 C325.13112061 144.64295044 325.13112061 144.64295044 325.12939453 145.92456055 C325 148 325 148 324 150 C323.34 150 322.68 150 322 150 C322.1546875 151.546875 322.1546875 151.546875 322.3125 153.125 C322.34113034 161.11286537 318.90696439 169.78726077 314 176 C313.67 176.99 313.34 177.98 313 179 C312 180 311 181 310 182 C308.82425289 184.09989652 308.82425289 184.09989652 308 186 C307.34 186 306.68 186 306 186 C305.896875 186.763125 305.79375 187.52625 305.6875 188.3125 C304.92859608 191.27912441 304.23521992 192.02269007 302 194 C301.484375 194.721875 300.96875 195.44375 300.4375 196.1875 C299.7259375 197.0846875 299.7259375 197.0846875 299 198 C298.34 198 297.68 198 297 198 C296.731875 198.5775 296.46375 199.155 296.1875 199.75 C294.92402995 202.14394326 293.88686183 204.04575024 292 206 C288.8125 206.75 288.8125 206.75 286 207 C286 207.99 286 208.98 286 210 C284.35 210.33 282.7 210.66 281 211 C280.67 211.99 280.34 212.98 280 214 C278.00390625 214.9140625 278.00390625 214.9140625 275.5625 215.625 C272.20490628 216.61831857 272.20490628 216.61831857 269 218 C276.32642439 218.67930894 283.61495987 219.09337278 290.96875 219.24609375 C292.13229004 219.2710643 292.13229004 219.2710643 293.31933594 219.29653931 C296.5314878 219.3630053 299.74362398 219.42539498 302.95605469 219.47680664 C305.3355349 219.51652807 307.71453639 219.56797225 310.09375 219.62109375 C310.81461792 219.6295079 311.53548584 219.63792206 312.27819824 219.64659119 C316.30648121 219.74540862 319.34472366 220.33319399 323 222 C325.42792152 222.43269889 327.86716505 222.80504963 330.3125 223.125 C332.19388672 223.37636719 332.19388672 223.37636719 334.11328125 223.6328125 C335.06589844 223.75398437 336.01851562 223.87515625 337 224 C337.33 224.99 337.66 225.98 338 227 C340.31 227.33 342.62 227.66 345 228 C345 228.99 345 229.98 345 231 C345.763125 231.103125 346.52625 231.20625 347.3125 231.3125 C350.32851145 232.08403781 351.01755903 232.6871522 353 235 C353.886875 235.804375 354.77375 236.60875 355.6875 237.4375 C358 240 358 240 358 244 C358.99 244.33 359.98 244.66 361 245 C361.66015625 246.92578125 361.66015625 246.92578125 362.0625 249.3125 C362.48816027 251.76511393 362.87466998 253.75081443 363.99609375 255.98046875 C365.51594355 259.03790979 365.86672323 262.21937894 366.4375 265.5625 C366.88825628 267.98799057 366.88825628 267.98799057 368.0234375 269.9453125 C372.87086156 280.14429271 370.5092013 297.05829058 369 308 C368.34 308 367.68 308 367 308 C366.89042969 308.60328125 366.78085937 309.2065625 366.66796875 309.828125 C365.78375589 314.2851329 365.09030814 317.53885489 362 321 C361.319375 322.2065625 361.319375 322.2065625 360.625 323.4375 C358.75637348 326.38418028 356.46036812 328.53963188 354 331 C353.67 331.99 353.34 332.98 353 334 C352.01 334.33 351.02 334.66 350 335 C348.31461399 336.99665314 348.31461399 336.99665314 347 339 C347.969375 339.28875 348.93875 339.5775 349.9375 339.875 C353 341 353 341 354 343 C354.99 343.33 355.98 343.66 357 344 C358.0625 345.9375 358.0625 345.9375 359 348 C359.66 348.66 360.32 349.32 361 350 C361.39764263 351.98821313 361.73775349 353.98944339 362 356 C362.99 356.33 363.98 356.66 365 357 C366.6674607 367.63006199 369.08764416 385.86853376 363 395 C361.33193814 403.69824551 361.88160299 412.87370092 361.9375 421.6875 C361.94252972 423.08268067 361.94709 424.47786311 361.95117188 425.87304688 C361.96285249 429.24874437 361.97923167 432.62434826 362 436 C362.99 436.33 363.98 436.66 365 437 C365.87890625 438.92578125 365.87890625 438.92578125 366.5625 441.3125 C367.26661256 443.71921243 367.93546625 445.87532727 369.08984375 448.10546875 C370 450 370 450 370 453 C370.66 453 371.32 453 372 453 C372.27714844 453.71027344 372.55429687 454.42054688 372.83984375 455.15234375 C373.20207031 456.07144531 373.56429687 456.99054688 373.9375 457.9375 C374.47697266 459.31228516 374.47697266 459.31228516 375.02734375 460.71484375 C375.7996218 462.92418533 375.7996218 462.92418533 377 464 C377.07179964 465.51928038 377.08392007 467.04167482 377.0625 468.5625 C377.05347656 469.38878906 377.04445313 470.21507812 377.03515625 471.06640625 C377.01775391 472.02353516 377.01775391 472.02353516 377 473 C376.030625 473.45375 375.06125 473.9075 374.0625 474.375 C370.92920418 475.65786221 370.92920418 475.65786221 370 478 C367.68191636 479.03485877 365.34824702 480.0355414 363 481 C362.67 481.33 362.34 481.66 362 482 C353.47718057 483.70456389 344.53401823 483.55163968 336 482 C335.67 481.01 335.34 480.02 335 479 C332.36 478.67 329.72 478.34 327 478 C326.67 477.01 326.34 476.02 326 475 C324.02 474.67 322.04 474.34 320 474 C319.67 473.01 319.34 472.02 319 471 C318.401875 470.855625 317.80375 470.71125 317.1875 470.5625 C314.20140345 469.7946466 312.93537629 468.35009978 311 466 C311 465.01 311 464.02 311 463 C309.68 462.67 308.36 462.34 307 462 C306.67 460.35 306.34 458.7 306 457 C305.34 457 304.68 457 304 457 C303.49733206 454.87562952 302.9979439 452.75048274 302.5 450.625 C302.08234375 448.84996094 302.08234375 448.84996094 301.65625 447.0390625 C301 444 301 444 301 442 C300.34 441.67 299.68 441.34 299 441 C298.10894502 436.45552056 297.87717655 432.04325489 297.88647461 427.42211914 C297.88655014 426.16134048 297.88662567 424.90056183 297.88670349 423.60157776 C297.8918085 422.24610351 297.89702447 420.89062967 297.90234375 419.53515625 C297.90421146 418.13268586 297.9056337 416.73021481 297.90663147 415.32774353 C297.91042884 411.6567908 297.92023504 407.98587835 297.93133545 404.31494141 C297.94160969 400.56087794 297.94614191 396.80680789 297.95117188 393.05273438 C297.96186009 385.70180466 297.97890268 378.350908 298 371 C295.36 371 292.72 371 290 371 C290.00222061 372.25645325 290.00444122 373.51290649 290.00672913 374.80743408 C290.02698508 386.63796795 290.04198401 398.4684983 290.05181217 410.29904556 C290.05703474 416.38149996 290.06412109 422.46394037 290.07543945 428.54638672 C290.08629049 434.41429533 290.09228156 440.28219047 290.09487724 446.15010834 C290.09672748 448.39083824 290.10034043 450.63156738 290.10573006 452.87229156 C290.11296983 456.0063487 290.11398969 459.14034993 290.11352539 462.27441406 C290.11712067 463.20445755 290.12071594 464.13450104 290.12442017 465.09272766 C290.1230455 465.94805588 290.12167084 466.80338409 290.12025452 467.68463135 C290.12117631 468.42575291 290.1220981 469.16687447 290.12304783 469.93045425 C289.9962004 472.06390556 289.58396297 473.94830942 289 476 C288.34 476 287.68 476 287 476 C287 476.66 287 477.32 287 478 C286.34 478 285.68 478 285 478 C285 478.66 285 479.32 285 480 C284.34 480 283.68 480 283 480 C283 480.66 283 481.32 283 482 C279.56802869 483.04505446 276.4135889 483.12910509 272.8359375 483.1328125 C271.63066406 483.13410156 270.42539062 483.13539063 269.18359375 483.13671875 C267.92675781 483.13285156 266.66992188 483.12898438 265.375 483.125 C264.14136719 483.12886719 262.90773438 483.13273437 261.63671875 483.13671875 C242.11597407 483.11597407 242.11597407 483.11597407 239 480 C236.94968628 479.19916172 234.87559499 478.54290981 232.77734375 477.87890625 C231.89755859 477.44384766 231.89755859 477.44384766 231 477 C230.67 476.01 230.34 475.02 230 474 C229.49520111 473.55486557 228.99040222 473.10973114 228.4703064 472.65110779 C226.39409982 470.31959317 226.56468487 468.6793499 226.47509766 465.58227539 C226.41882706 463.82698769 226.41882706 463.82698769 226.36141968 462.03623962 C226.33624634 460.70256465 226.31217668 459.3688685 226.2890625 458.03515625 C226.25483068 456.59692749 226.22053658 455.15870021 226.18618774 453.72047424 C225.68946811 429.96361474 226.09836126 406.18497476 226.33660889 382.42718506 C226.38181691 377.72907247 226.42079728 373.03092898 226.45864332 368.33275265 C226.50607668 362.46417907 226.55882692 356.59566502 226.61400223 350.7271595 C226.63679012 348.25808915 226.65831151 345.78900676 226.67850876 343.31991386 C226.70736807 339.89086637 226.74226329 336.46193206 226.77880859 333.03295898 C226.7861351 332.02888 226.79346161 331.02480103 226.80101013 329.99029541 C226.96754841 316.06490317 226.96754841 316.06490317 229 312 C229.11620055 309.66430801 229.16708072 307.32529007 229.18945312 304.98681641 C229.19774643 304.2645285 229.20603973 303.5422406 229.21458435 302.79806519 C229.23200567 301.22554356 229.24716677 299.65299567 229.26036072 298.08043289 C229.28141702 295.58174225 229.30844678 293.08317929 229.33703613 290.58456421 C229.3967865 285.26475942 229.44877105 279.94489267 229.5 274.625 C229.55948721 268.49210531 229.62222995 262.35927065 229.69187927 256.22648239 C229.71814451 253.78289476 229.7391576 251.3393003 229.7598877 248.8956604 C229.84462285 240.55395698 230.1333809 232.30594385 231 224 C231.99 223.67 232.98 223.34 234 223 C234.66 222.01 235.32 221.02 236 220 C238.3828125 219.48828125 238.3828125 219.48828125 241.125 219.3125 C242.49011719 219.21388672 242.49011719 219.21388672 243.8828125 219.11328125 C244.58148437 219.07589844 245.28015625 219.03851563 246 219 C243.36 218.34 240.72 217.68 238 217 C238 216.34 238 215.68 238 215 C235.69 214.67 233.38 214.34 231 214 C230.67 213.01 230.34 212.02 230 211 C228.00428677 210.32060826 226.00405227 209.65438441 224 209 C222 206 222 206 222 203 C221.01 202.67 220.02 202.34 219 202 C218.3046875 200.109375 218.3046875 200.109375 217.875 197.75 C217.64296875 196.52216797 217.64296875 196.52216797 217.40625 195.26953125 C217.20515625 194.14611328 217.20515625 194.14611328 217 193 C216.79375 192.154375 216.5875 191.30875 216.375 190.4375 C215.83282178 186.91334156 215.88113314 183.56600571 216 180 C216.33 179.67 216.66 179.34 217 179 C217.50221037 175.51192071 217.90186871 172.0164865 218.3046875 168.515625 C219.00025654 164.99870289 219.9921607 162.9257087 222 160 C222.68096422 158.67391178 223.35330586 157.34313399 224 156 C224.66 156 225.32 156 226 156 C226.33 153.69 226.66 151.38 227 149 C227.99 148.67 228.98 148.34 230 148 C230.144375 147.21625 230.28875 146.4325 230.4375 145.625 C231 143 231 143 232 141 C232.66 141 233.32 141 234 141 C234.33 139.35 234.66 137.7 235 136 C235.99 136 236.98 136 238 136 C238.66 134.35 239.32 132.7 240 131 C240.66 131 241.32 131 242 131 C242.33 129.35 242.66 127.7 243 126 C243.66 126 244.32 126 245 126 C245.226875 125.46375 245.45375 124.9275 245.6875 124.375 C247.6945121 120.74326382 250.22835295 116.88582352 254 115 C254.33 114.01 254.66 113.02 255 112 C256.485 111.505 256.485 111.505 258 111 C258.33 110.01 258.66 109.02 259 108 C260.485 107.505 260.485 107.505 262 107 C262.66 106.01 263.32 105.02 264 104 C258.77254141 102.7936634 254.23471686 103.24387423 249 104 C249 104.66 249 105.32 249 106 C246.36 106.33 243.72 106.66 241 107 C240.67 107.99 240.34 108.98 240 110 C238.00390625 110.66015625 238.00390625 110.66015625 235.5625 111.0625 C231.85836343 111.63171515 231.85836343 111.63171515 229 114 C227.08203125 114.78125 227.08203125 114.78125 224.8125 115.5 C224.00296875 115.75652344 223.1934375 116.01304687 222.359375 116.27734375 C221.19148437 116.63505859 221.19148437 116.63505859 220 117 C218.2984375 117.5259375 218.2984375 117.5259375 216.5625 118.0625 C212.7445816 119.06721537 208.92113268 119.82559357 205.0390625 120.53515625 C203.01666471 120.80591773 203.01666471 120.80591773 202 122 C199.32941149 122.14115161 196.67567762 122.04247107 194 122 C193.95101562 123.03640625 193.90203125 124.0728125 193.8515625 125.140625 C193.77650403 126.51044208 193.70095753 127.88023248 193.625 129.25 C193.5940625 129.93191406 193.563125 130.61382812 193.53125 131.31640625 C193.31141732 135.0902006 192.75764992 137.69774864 191 141 C190.56201462 143.23859193 190.19126072 145.49099487 189.875 147.75 C189.70742188 148.92046875 189.53984375 150.0909375 189.3671875 151.296875 C189.24601563 152.18890625 189.12484375 153.0809375 189 154 C188.34 154 187.68 154 187 154 C186.34 157.63 185.68 161.26 185 165 C184.01 165.33 183.02 165.66 182 166 C181.67 168.31 181.34 170.62 181 173 C180.01 173.33 179.02 173.66 178 174 C177.896875 174.928125 177.79375 175.85625 177.6875 176.8125 C176.96755671 180.1504189 176.45546562 180.85146758 174 183 C173.67 183.99 173.34 184.98 173 186 C172.01 186 171.02 186 170 186 C169.938125 186.8353125 169.938125 186.8353125 169.875 187.6875 C168.51022892 191.294395 166.08919824 192.73038496 163 195 C162.34 195 161.68 195 161 195 C161 195.99 161 196.98 161 198 C156.87020294 201.19726224 151.92087796 202.48131525 147 204 C145.80375 204.4125 144.6075 204.825 143.375 205.25 C139.58170733 206.09295393 136.78311351 205.77206398 133 205 C133 204.34 133 203.68 133 203 C131.9275 203.020625 130.855 203.04125 129.75 203.0625 C124.53658537 202.97560976 124.53658537 202.97560976 122 202 C121.67 201.34 121.34 200.68 121 200 C120.05125 199.690625 119.1025 199.38125 118.125 199.0625 C114.94920501 197.9827297 114.21985267 197.30457987 112 195 C110.1706627 193.67990006 108.30446015 192.43215674 106.42578125 191.18359375 C105.72001953 190.59771484 105.72001953 190.59771484 105 190 C105 189.34 105 188.68 105 188 C104.34 188 103.68 188 103 188 C102.731875 187.401875 102.46375 186.80375 102.1875 186.1875 C101.11977597 183.95732387 101.11977597 183.95732387 99.375 182.4375 C98 181 98 181 98 178 C97.01 178 96.02 178 95 178 C94.67 175.69 94.34 173.38 94 171 C93.01 170.67 92.02 170.34 91 170 C91 169.01 91 168.02 91 167 C90.34 167 89.68 167 89 167 C88.87625 167.721875 88.7525 168.44375 88.625 169.1875 C88.00516788 171.97674456 87.11584336 174.37448621 86 177 C84.08827158 181.5881482 82.54305704 186.27824545 81 191 C80.01 191 79.02 191 78 191 C77.855625 192.27875 77.71125 193.5575 77.5625 194.875 C77.29357254 197.25692894 77.07773654 198.84452691 76 201 C75.34 201 74.68 201 74 201 C73.938125 201.845625 73.87625 202.69125 73.8125 203.5625 C72.81850182 207.76787691 70.97837736 210.86388926 68 214 C67.34 214 66.68 214 66 214 C65.938125 214.8353125 65.938125 214.8353125 65.875 215.6875 C64.51022892 219.294395 62.08919824 220.73038496 59 223 C58.34 223 57.68 223 57 223 C56.67 223.99 56.34 224.98 56 226 C54.22265625 226.66015625 54.22265625 226.66015625 52.0625 227.0625 C48.64897659 227.70261846 48.64897659 227.70261846 46 230 C41.11914347 230.55464279 38.21826498 229.38423673 34 227 C33.21625 226.608125 32.4325 226.21625 31.625 225.8125 C31.08875 225.544375 30.5525 225.27625 30 225 C30 224.34 30 223.68 30 223 C28.68 222.34 27.36 221.68 26 221 C26 220.34 26 219.68 26 219 C25.01 218.67 24.02 218.34 23 218 C19.59457986 213.09619499 17.80628362 207.64463633 16 202 C15.62875 200.9275 15.2575 199.855 14.875 198.75 C13.78861874 194.0940803 13.82777857 189.75522501 14 185 C13.01 184.67 12.02 184.34 11 184 C9.6699897 175.02243049 9.91211961 166.05168034 10 157 C9.34 157 8.68 157 8 157 C6.69830062 153.09490186 6.63153213 149.26535566 6.4375 145.1875 C6.39431641 144.33671875 6.35113281 143.4859375 6.30664062 142.609375 C6.06782596 137.56773203 5.96077757 132.54848744 6 127.5 C6.04916376 120.47777605 6.06235379 113.48169856 4 106.72265625 C2.87576504 102.53751593 2.5531636 98.68433203 2.375 94.375 C2.33632813 93.59318359 2.29765625 92.81136719 2.2578125 92.00585938 C1.98904584 86.13618741 1.94380733 80.28153739 2.0625 74.40625 C2.16973509 71.9862712 2.16973509 71.9862712 1 70 C-1.22825644 72.22825644 -1.69239369 73.65761628 -2.625 76.625 C-3.01558594 77.85089844 -3.01558594 77.85089844 -3.4140625 79.1015625 C-3.60742188 79.72804688 -3.80078125 80.35453125 -4 81 C-4.66 81 -5.32 81 -6 81 C-6.12375 82.11375 -6.2475 83.2275 -6.375 84.375 C-7 88 -7 88 -9 90 C-9.88778692 91.96488831 -9.88778692 91.96488831 -10.625 94.125 C-11.01558594 95.21167969 -11.01558594 95.21167969 -11.4140625 96.3203125 C-11.60742188 96.87460938 -11.80078125 97.42890625 -12 98 C-12.66 98 -13.32 98 -14 98 C-14.04898437 98.69867188 -14.09796875 99.39734375 -14.1484375 100.1171875 C-14.22320312 101.02726562 -14.29796875 101.93734375 -14.375 102.875 C-14.44460938 103.77992188 -14.51421875 104.68484375 -14.5859375 105.6171875 C-15 108 -15 108 -17 110 C-17.60713803 111.85483454 -18.14131052 113.73421385 -18.625 115.625 C-19.01558594 117.12933594 -19.01558594 117.12933594 -19.4140625 118.6640625 C-19.60742188 119.43492187 -19.80078125 120.20578125 -20 121 C-20.66 121 -21.32 121 -22 121 C-22.04898437 121.77085937 -22.09796875 122.54171875 -22.1484375 123.3359375 C-22.22320312 124.33882813 -22.29796875 125.34171875 -22.375 126.375 C-22.44460938 127.37273437 -22.51421875 128.37046875 -22.5859375 129.3984375 C-23 132 -23 132 -25 134 C-25.60871929 136.55778838 -25.60871929 136.55778838 -26 139.4375 C-26.54824376 143.11367023 -26.89953191 144.84929786 -29 148 C-29.61358505 151.34489075 -30.0162118 154.69233918 -30.4375 158.06640625 C-31 161 -31 161 -33 163 C-33.44217244 165.6819348 -33.79117636 168.30091961 -34.0625 171 C-34.88414634 178.76829268 -34.88414634 178.76829268 -36 181 C-36.66 181 -37.32 181 -38 181 C-37.938125 182.794375 -37.938125 182.794375 -37.875 184.625 C-37.8817561 188.46922293 -38.54740292 191.40673355 -40 195 C-40.22945313 195.62390625 -40.45890625 196.2478125 -40.6953125 196.890625 C-41.3683919 198.63354638 -42.17762295 200.32235081 -43 202 C-43.99 202.33 -44.98 202.66 -46 203 C-46.33 203.99 -46.66 204.98 -47 206 C-49.1796875 207.203125 -49.1796875 207.203125 -51.875 208.25 C-52.75929688 208.60578125 -53.64359375 208.9615625 -54.5546875 209.328125 C-57 210 -57 210 -60 209 C-60 208.34 -60 207.68 -60 207 C-61.093125 206.9175 -62.18625 206.835 -63.3125 206.75 C-67 206 -67 206 -68.9375 204.125 C-70 202 -70 202 -70 199 C-70.99 198.67 -71.98 198.34 -73 198 C-73.12117188 196.78441406 -73.24234375 195.56882813 -73.3671875 194.31640625 C-73.53597078 192.73171883 -73.70526816 191.1470861 -73.875 189.5625 C-73.95363281 188.76005859 -74.03226562 187.95761719 -74.11328125 187.13085938 C-74.33845763 185.07829006 -74.66222587 183.03706991 -75 181 C-75.66 180.67 -76.32 180.34 -77 180 C-77.37890625 178.11401367 -77.37890625 178.11401367 -77.5625 175.66796875 C-77.67464844 174.34635742 -77.67464844 174.34635742 -77.7890625 172.99804688 C-77.85867188 172.07056641 -77.92828125 171.14308594 -78 170.1875 C-78.13829465 168.36790091 -78.28387234 166.54883747 -78.4375 164.73046875 C-78.49808594 163.91989014 -78.55867188 163.10931152 -78.62109375 162.27416992 C-79.02549834 159.84696068 -79.84610668 158.15679666 -81 156 C-81.4140625 153.640625 -81.4140625 153.640625 -81.625 151.25 C-81.73714844 150.05117188 -81.73714844 150.05117188 -81.8515625 148.828125 C-81.90054687 148.22484375 -81.94953125 147.6215625 -82 147 C-82.66 147.99 -83.32 148.98 -84 150 C-84.66 150 -85.32 150 -86 150 C-86.103125 150.763125 -86.20625 151.52625 -86.3125 152.3125 C-87.0690983 155.27011154 -87.81772825 155.99230999 -90 158 C-91.17574711 160.09989652 -91.17574711 160.09989652 -92 162 C-92.66 162 -93.32 162 -94 162 C-94.66 163.65 -95.32 165.3 -96 167 C-96.66 167 -97.32 167 -98 167 C-98.66 168.98 -99.32 170.96 -100 173 C-100.66 173 -101.32 173 -102 173 C-102.28875 173.804375 -102.5775 174.60875 -102.875 175.4375 C-104 178 -104 178 -106 179 C-106.33 179.99 -106.66 180.98 -107 182 C-107.99 182 -108.98 182 -110 182 C-110.103125 182.639375 -110.20625 183.27875 -110.3125 183.9375 C-110.539375 184.618125 -110.76625 185.29875 -111 186 C-111.99 186.33 -112.98 186.66 -114 187 C-115.00916033 188.76591887 -115.00916033 188.76591887 -116 191 C-118 194.25 -118 194.25 -120 197 C-120.66 197 -121.32 197 -122 197 C-122.28875 197.804375 -122.5775 198.60875 -122.875 199.4375 C-124 202 -124 202 -126 203 C-126.33 203.99 -126.66 204.98 -127 206 C-127.99 206.33 -128.98 206.66 -130 207 C-130.33 207.99 -130.66 208.98 -131 210 C-131.99 210.33 -132.98 210.66 -134 211 C-134.66 211.99 -135.32 212.98 -136 214 C-139.125 214.6875 -139.125 214.6875 -142 215 C-142.33 215.99 -142.66 216.98 -143 218 C-153.89862222 220.70285831 -162.42670439 221.93420462 -173 217 C-173 216.34 -173 215.68 -173 215 C-174.65 214.34 -176.3 213.68 -178 213 C-178 212.34 -178 211.68 -178 211 C-178.73863281 210.76410156 -179.47726563 210.52820313 -180.23828125 210.28515625 C-183.44394441 208.79341201 -184.94115678 207.14440875 -187.1875 204.4375 C-189.71926521 201.24707165 -189.71926521 201.24707165 -193 199 C-193.625 196.4375 -193.625 196.4375 -194 194 C-194.99 193.67 -195.98 193.34 -197 193 C-198.375 190.5625 -198.375 190.5625 -200 187 C-200.62648437 185.84177734 -200.62648437 185.84177734 -201.265625 184.66015625 C-204.13400835 179.31078616 -205.66274347 175.0706176 -206 169 C-206.66 169 -207.32 169 -208 169 C-208.99 166.525 -208.99 166.525 -210 164 C-210.33 165.32 -210.66 166.64 -211 168 C-211.66 168 -212.32 168 -213 168 C-213.12117187 168.77085937 -213.24234375 169.54171875 -213.3671875 170.3359375 C-213.53476563 171.33882812 -213.70234375 172.34171875 -213.875 173.375 C-214.11863281 174.87160156 -214.11863281 174.87160156 -214.3671875 176.3984375 C-215 179 -215 179 -217 181 C-217.59834554 182.52056618 -218.13506656 184.06612088 -218.625 185.625 C-218.88539063 186.44226563 -219.14578125 187.25953125 -219.4140625 188.1015625 C-219.60742188 188.72804687 -219.80078125 189.35453125 -220 190 C-220.66 190 -221.32 190 -222 190 C-222.103125 191.093125 -222.20625 192.18625 -222.3125 193.3125 C-223.03382335 197.18141612 -223.3240078 197.53808718 -226 200 C-227.20049407 203.10007201 -227.20049407 203.10007201 -228 206 C-228.66 206 -229.32 206 -230 206 C-230.3403125 207.299375 -230.3403125 207.299375 -230.6875 208.625 C-233.32632355 215.41054627 -237.99281241 219.2176967 -244 223 C-244.99 223 -245.98 223 -247 223 C-247.33 223.99 -247.66 224.98 -248 226 C-253.93024803 226.97040422 -259.06390334 226.89316269 -265 226 C-265 225.34 -265 224.68 -265 224 C-266.03125 223.835 -267.0625 223.67 -268.125 223.5 C-273.11426525 222.11071273 -275.46582281 218.2944949 -278 214 C-278.33 213.01 -278.66 212.02 -279 211 C-279.66 210.67 -280.32 210.34 -281 210 C-281.4140625 207.93359375 -281.4140625 207.93359375 -281.625 205.4375 C-281.73714844 204.19806641 -281.73714844 204.19806641 -281.8515625 202.93359375 C-281.90054688 202.29550781 -281.94953125 201.65742188 -282 201 C-282.66 201 -283.32 201 -284 201 C-284.18175781 200.03900391 -284.18175781 200.03900391 -284.3671875 199.05859375 C-285.12343002 195.15521891 -285.90702862 191.32539982 -287 187.5 C-289.32910948 179.34811681 -290.29759514 171.51824736 -290.57055664 163.06494141 C-290.69655497 159.95985431 -290.89130747 157.29021443 -291.98632812 154.36645508 C-293.31745919 149.94570211 -293.42297424 145.77736023 -293.5625 141.18359375 C-293.61772827 139.78247093 -293.61772827 139.78247093 -293.67407227 138.3530426 C-293.83063228 134.37553331 -293.96676921 130.39738848 -294.10449219 126.41918945 C-294.20825242 123.50700148 -294.32260877 120.59536041 -294.4375 117.68359375 C-294.46465088 116.78764999 -294.49180176 115.89170624 -294.51977539 114.96861267 C-294.69905071 110.45846137 -295.24143261 107.18482614 -297 103 C-297.29665337 100.33523443 -297.50842021 97.74591703 -297.6328125 95.07421875 C-297.67437469 94.32662796 -297.71593689 93.57903717 -297.75875854 92.80879211 C-297.88886935 90.43537931 -298.00710364 88.06154774 -298.125 85.6875 C-298.21145461 84.07222342 -298.29868583 82.45698821 -298.38671875 80.84179688 C-298.6001399 76.8949535 -298.80291643 72.94769154 -299 69 C-300.485 69.495 -300.485 69.495 -302 70 C-302.185625 71.7015625 -302.185625 71.7015625 -302.375 73.4375 C-302.58125 74.613125 -302.7875 75.78875 -303 77 C-303.99 77.495 -303.99 77.495 -305 78 C-305.61067144 79.85744207 -305.61067144 79.85744207 -306 82 C-306.4375 84.1875 -306.4375 84.1875 -307 86 C-307.99 86.495 -307.99 86.495 -309 87 C-309.61067144 88.85744207 -309.61067144 88.85744207 -310 91 C-310.4375 93.1875 -310.4375 93.1875 -311 95 C-311.99 95.495 -311.99 95.495 -313 96 C-313.61432869 98.31850007 -313.61432869 98.31850007 -314 101 C-314.4375 103.75 -314.4375 103.75 -315 106 C-315.99 106.495 -315.99 106.495 -317 107 C-317.68931344 109.34907875 -317.68931344 109.34907875 -318.125 112.0625 C-318.29257812 112.98160156 -318.46015625 113.90070313 -318.6328125 114.84765625 C-318.81457031 115.91306641 -318.81457031 115.91306641 -319 117 C-320.485 117.495 -320.485 117.495 -322 118 C-322.33 121.63 -322.66 125.26 -323 129 C-323.99 129.33 -324.98 129.66 -326 130 C-325.95875 131.175625 -325.9175 132.35125 -325.875 133.5625 C-325.875 137.67296136 -326.71671764 141.07885945 -328 145 C-329.39227638 149.69893278 -330.55123491 154.38205452 -331.53515625 159.1796875 C-332 161 -332 161 -333 162 C-333.5381758 165.32402697 -333.96620477 168.65724826 -334.40234375 171.99609375 C-335 175 -335 175 -337 177 C-337.49685963 180.10997324 -337.83427958 183.19228679 -338.12304688 186.32617188 C-338.94322114 193.79640778 -342.8670337 199.46953774 -348.52734375 204.3046875 C-353.60522068 207.76959176 -358.15176023 207.08257155 -364 206 C-364.33 205.01 -364.66 204.02 -365 203 C-367.01508358 202.26676204 -367.01508358 202.26676204 -369 202 C-369.33 200.35 -369.66 198.7 -370 197 C-370.66 197 -371.32 197 -372 197 C-373.6277833 190.85221129 -374.20190089 185.35987804 -374 179 C-374.66 179 -375.32 179 -376 179 C-377.10556484 172.65641923 -378.16951227 166.36243801 -378.65625 159.9375 C-378.89081682 157.96356957 -378.89081682 157.96356957 -379.98413086 156.32104492 C-381.36506113 153.16591296 -381.41544639 150.36145675 -381.59765625 146.92578125 C-381.63684677 146.24251266 -381.67603729 145.55924408 -381.71641541 144.85527039 C-381.84005542 142.67471149 -381.95180964 140.49375117 -382.0625 138.3125 C-382.21637055 135.45421855 -382.37475103 132.59620298 -382.53515625 129.73828125 C-382.57331451 129.05476593 -382.61147278 128.37125061 -382.65078735 127.66702271 C-383.05060442 118.70097666 -383.05060442 118.70097666 -385 110 C-385.15138614 108.05772128 -385.24885371 106.11106045 -385.31640625 104.1640625 C-385.35846191 102.9675708 -385.40051758 101.7710791 -385.44384766 100.53833008 C-385.48300293 99.24693115 -385.5221582 97.95553223 -385.5625 96.625 C-385.58334656 95.9679306 -385.60419312 95.31086121 -385.62567139 94.63388062 C-385.94790785 84.36037919 -386.10354026 74.09106599 -386.125 63.8125 C-386.12959229 62.57258301 -386.13418457 61.33266602 -386.13891602 60.05517578 C-386.13690186 58.90903809 -386.1348877 57.76290039 -386.1328125 56.58203125 C-386.13168457 55.57374268 -386.13055664 54.5654541 -386.12939453 53.52661133 C-386 51 -386 51 -385 48 C-384.34 48 -383.68 48 -383 48 C-382.731875 47.236875 -382.46375 46.47375 -382.1875 45.6875 C-381.0364442 43.08247899 -380.19546244 41.75636995 -378 40 C-373.68868054 38.56289351 -369.81197663 38.61171929 -365.375 39.5625 C-361.80391851 41.72394406 -359.71747267 44.26308145 -358 48 C-356.98687995 52.30439113 -356.46721694 56.60714508 -356 61 C-355.83935059 62.19455811 -355.67870117 63.38911621 -355.51318359 64.61987305 C-354.93546665 69.2251617 -354.66336131 73.82711203 -354.4296875 78.4609375 C-354.38433868 79.33271637 -354.33898987 80.20449524 -354.29226685 81.10269165 C-354.19834188 82.92954752 -354.10598616 84.75648469 -354.01513672 86.58349609 C-353.87434481 89.38805127 -353.72448005 92.19203187 -353.57421875 94.99609375 C-353.48382351 96.77601374 -353.39396059 98.55596087 -353.3046875 100.3359375 C-353.25891571 101.17546967 -353.21314392 102.01500183 -353.16598511 102.87997437 C-352.88552347 108.77104694 -352.88552347 108.77104694 -354 111 C-352.02 110.505 -352.02 110.505 -350 110 C-349.94392578 109.14728516 -349.94392578 109.14728516 -349.88671875 108.27734375 C-349.43339508 102.95301276 -348.30299684 98.88235331 -346 94 C-345.31163487 92.00736409 -344.63718601 90.00958663 -344 88 C-343.34 88 -342.68 88 -342 88 C-341.896875 86.783125 -341.79375 85.56625 -341.6875 84.3125 C-341.22219857 80.53026411 -340.10735261 78.20317597 -338 75 C-337.690625 74.071875 -337.38125 73.14375 -337.0625 72.1875 C-335.74533551 68.23600654 -333.90817591 64.69280086 -332 61 C-331.24795432 59.50102459 -330.49787761 58.00105932 -329.75 56.5 C-329.1725 55.345 -328.595 54.19 -328 53 C-327.34 53 -326.68 53 -326 53 C-325.67 51.35 -325.34 49.7 -325 48 C-324.01 47.67 -323.02 47.34 -322 47 C-321.896875 46.05125 -321.79375 45.1025 -321.6875 44.125 C-321 41 -321 41 -318 39 C-317.67 38.01 -317.34 37.02 -317 36 C-316.01 36 -315.02 36 -314 36 C-313.67 34.68 -313.34 33.36 -313 32 C-312.360625 31.896875 -311.72125 31.79375 -311.0625 31.6875 C-310.381875 31.460625 -309.70125 31.23375 -309 31 C-308.505 29.515 -308.505 29.515 -308 28 C-306.01276732 27.29618843 -304.01222047 26.6288189 -302 26 C-301.67 25.34 -301.34 24.68 -301 24 C-294.86746989 22.19631467 -288.86222862 22.4876163 -283 25 C-282.505 25.99 -282.505 25.99 -282 27 C-280.515 27.495 -280.515 27.495 -279 28 C-278.505 29.485 -278.505 29.485 -278 31 C-276.515 31.495 -276.515 31.495 -275 32 C-273.4375 34.8125 -273.4375 34.8125 -272 38 C-271.4121875 38.9590625 -271.4121875 38.9590625 -270.8125 39.9375 C-269.62102066 42.96202448 -269.87647512 45.78835313 -270 49 C-269.34 49 -268.68 49 -268 49 C-267.05714848 54.75139426 -266.72577091 60.43012775 -266.5 66.25 C-266.41565996 68.20313778 -266.33101869 70.15626257 -266.24609375 72.109375 C-266.12402104 74.99922088 -266.00434518 77.88909071 -265.89111328 80.77929688 C-265.78911415 83.35324733 -265.67664845 85.92656405 -265.5625 88.5 C-265.53542969 89.26989258 -265.50835937 90.03978516 -265.48046875 90.83300781 C-265.33549927 93.97076076 -265.11483504 96.69236462 -264.01147461 99.64819336 C-262.69915952 103.99691986 -262.57820579 108.07839601 -262.4375 112.59765625 C-262.38227173 113.965485 -262.38227173 113.965485 -262.32592773 115.36094666 C-262.16940897 119.24286542 -262.03324199 123.12543318 -261.89550781 127.00805664 C-261.79173024 129.85075287 -261.67738155 132.69289059 -261.5625 135.53515625 C-261.53534912 136.40922623 -261.50819824 137.2832962 -261.48022461 138.18385315 C-261.30162895 142.56996343 -260.91003661 145.97423777 -259 150 C-257.76276576 158.59060754 -257.8724404 167.34012037 -258 176 C-257.34 176.33 -256.68 176.66 -256 177 C-255 178 -255 178 -254.9375 181.5625 C-254.958125 182.696875 -254.97875 183.83125 -255 185 C-254.34 185 -253.68 185 -253 185 C-252.67 183.35 -252.34 181.7 -252 180 C-251.34 180 -250.68 180 -250 180 C-249.87625 178.88625 -249.7525 177.7725 -249.625 176.625 C-249 173 -249 173 -247 171 C-246.39688385 169.31238142 -245.86149763 167.59985524 -245.375 165.875 C-245.11460937 164.96492187 -244.85421875 164.05484375 -244.5859375 163.1171875 C-244.39257812 162.41851562 -244.19921875 161.71984375 -244 161 C-243.34 161 -242.68 161 -242 161 C-241.87625 159.741875 -241.7525 158.48375 -241.625 157.1875 C-241.30131941 153.89674737 -240.93395001 152.90092502 -239 150 C-238.56261304 148.28555111 -238.19151312 146.55332216 -237.875 144.8125 C-237.62363281 143.46091797 -237.62363281 143.46091797 -237.3671875 142.08203125 C-237.24601563 141.39496094 -237.12484375 140.70789063 -237 140 C-236.01 139.67 -235.02 139.34 -234 139 C-233.95101562 138.22914063 -233.90203125 137.45828125 -233.8515625 136.6640625 C-233.73941406 135.15972656 -233.73941406 135.15972656 -233.625 133.625 C-233.55539063 132.62726563 -233.48578125 131.62953125 -233.4140625 130.6015625 C-233 128 -233 128 -231 126 C-230.32059533 123.57284794 -230.32059533 123.57284794 -229.875 120.875 C-229.62363281 119.50988281 -229.62363281 119.50988281 -229.3671875 118.1171875 C-229.24601563 117.41851562 -229.12484375 116.71984375 -229 116 C-228.01 116 -227.02 116 -226 116 C-225.96261719 115.33613281 -225.92523438 114.67226562 -225.88671875 113.98828125 C-225.50347449 108.84078481 -225.06598703 105.29238184 -222 101 C-221.30503877 99.34493169 -220.6417701 97.67641086 -220 96 C-219.33509293 94.29098104 -218.66843488 92.58264224 -218 90.875 C-217.67 90.02679688 -217.34 89.17859375 -217 88.3046875 C-216 86 -216 86 -214 83 C-214.66 82.67 -215.32 82.34 -216 82 C-215.84007568 81.31301025 -215.68015137 80.62602051 -215.51538086 79.91821289 C-214.94309733 76.67780312 -214.82157658 73.5984653 -214.75390625 70.30859375 C-214.70459961 68.39723633 -214.70459961 68.39723633 -214.65429688 66.44726562 C-214.60682135 64.4373044 -214.56230307 62.42737851 -214.52319336 60.41723633 C-214.48340291 58.4641686 -214.4313097 56.51136376 -214.37890625 54.55859375 C-214.34132202 52.81533813 -214.34132202 52.81533813 -214.30297852 51.03686523 C-214.01481944 48.14854068 -213.50232285 46.44676887 -212 44 C-211.34 44 -210.68 44 -210 44 C-209.67 42.68 -209.34 41.36 -209 40 C-205.535 39.505 -205.535 39.505 -202 39 C-202 38.34 -202 37.68 -202 37 C-196.92387682 36.38471234 -194.17017994 38.38341651 -190 41 C-190 41.66 -190 42.32 -190 43 C-189.01 43.33 -188.02 43.66 -187 44 C-186.12607209 47.78240434 -185.85561061 51.31705044 -185.81054688 55.19555664 C-185.78547058 57.03755394 -185.78547058 57.03755394 -185.7598877 58.91676331 C-185.73952454 60.89349281 -185.73952454 60.89349281 -185.71875 62.91015625 C-185.70069383 64.28349006 -185.68209002 65.65681678 -185.66296387 67.03013611 C-185.59338381 72.11199396 -185.53377545 77.19395972 -185.47393799 82.27593994 C-185.42292214 86.57732539 -185.36807905 90.87862884 -185.30812073 95.17989922 C-185.28162764 97.19394722 -185.26082877 99.20806752 -185.2401123 101.22218323 C-185.21503601 103.05945229 -185.21503601 103.05945229 -185.18945312 104.93383789 C-185.17692505 106.01129776 -185.16439697 107.08875763 -185.15148926 108.1988678 C-185.09812919 110.9247903 -185.09812919 110.9247903 -184.42565918 113.19163513 C-184 115 -184 115 -185 118 C-184.34 118 -183.68 118 -183 118 C-182.98018066 118.66531738 -182.96036133 119.33063477 -182.93994141 120.01611328 C-182.84423582 123.05278268 -182.73474192 126.08880678 -182.625 129.125 C-182.57859375 130.69507813 -182.57859375 130.69507813 -182.53125 132.296875 C-182.33105848 137.56858493 -182.00495152 142.05597182 -180 147 C-178.76042001 151.65990256 -177.68683976 156.14601623 -178 161 C-177.34 161 -176.68 161 -176 161 C-175.70996094 162.06541016 -175.70996094 162.06541016 -175.4140625 163.15234375 C-175.15367187 164.07144531 -174.89328125 164.99054688 -174.625 165.9375 C-174.36976563 166.85402344 -174.11453125 167.77054688 -173.8515625 168.71484375 C-173.23339896 171.16745087 -173.23339896 171.16745087 -171 172 C-169.96210419 173.64333504 -168.96432076 175.31243867 -168 177 C-167.34 177.99 -166.68 178.98 -166 180 C-166 180.99 -166 181.98 -166 183 C-165.01 183.33 -164.02 183.66 -163 184 C-162.67 184.66 -162.34 185.32 -162 186 C-159.87423218 186.46651207 -159.87423218 186.46651207 -157.4375 186.625 C-156.61121094 186.69976562 -155.78492188 186.77453125 -154.93359375 186.8515625 C-153.97646484 186.92503906 -153.97646484 186.92503906 -153 187 C-152.67 186.01 -152.34 185.02 -152 184 C-150.0625 181.8125 -150.0625 181.8125 -148 180 C-147.34 180 -146.68 180 -146 180 C-145.938125 179.443125 -145.87625 178.88625 -145.8125 178.3125 C-144.6519231 175.00931958 -142.59786554 173.28105267 -140 171 C-139.34 171 -138.68 171 -138 171 C-137.855625 170.38125 -137.71125 169.7625 -137.5625 169.125 C-137 167 -137 167 -136 165 C-135.34 165 -134.68 165 -134 165 C-133.71125 164.195625 -133.4225 163.39125 -133.125 162.5625 C-132 160 -132 160 -130 159 C-129.67 158.01 -129.34 157.02 -129 156 C-128.01 156 -127.02 156 -126 156 C-125.896875 155.360625 -125.79375 154.72125 -125.6875 154.0625 C-125.460625 153.381875 -125.23375 152.70125 -125 152 C-124.01 151.67 -123.02 151.34 -122 151 C-121.9071875 149.9790625 -121.9071875 149.9790625 -121.8125 148.9375 C-120.73598615 145.04548838 -118.74334968 141.96555246 -116 139 C-115.34 139 -114.68 139 -114 139 C-113.67 137.02 -113.34 135.04 -113 133 C-112.01 132.67 -111.02 132.34 -110 132 C-108.78130071 129.49552484 -108.78130071 129.49552484 -108 127 C-107.34 127 -106.68 127 -106 127 C-105.67 125.02 -105.34 123.04 -105 121 C-103.515 120.505 -103.515 120.505 -102 120 C-101.87625 119.195625 -101.7525 118.39125 -101.625 117.5625 C-101.315625 116.2940625 -101.315625 116.2940625 -101 115 C-100.34 114.67 -99.68 114.34 -99 114 C-98.27306096 112.02111039 -97.60183749 110.02045442 -97 108 C-96.01 108 -95.02 108 -94 108 C-93.896875 106.906875 -93.79375 105.81375 -93.6875 104.6875 C-92.97709268 100.87713346 -92.70753305 100.38262908 -90 98 C-88.89363605 95.60931266 -88.89363605 95.60931266 -88 93 C-87.65324219 92.28070313 -87.30648438 91.56140625 -86.94921875 90.8203125 C-85.74867412 87.25326221 -85.78725971 83.96235128 -85.875 80.25 C-85.88257324 79.51426758 -85.89014648 78.77853516 -85.89794922 78.02050781 C-85.92227681 75.68009441 -85.95951902 73.34018633 -86 71 C-86.05333587 67.91667873 -86.09325893 64.83361092 -86.125 61.75 C-86.14989502 60.6966748 -86.14989502 60.6966748 -86.17529297 59.62207031 C-86.21531288 55.59860506 -85.77197928 52.61543539 -84 49 C-83.58234375 48.10152344 -83.1646875 47.20304687 -82.734375 46.27734375 C-80.44769609 43.27479014 -78.93858442 43.09144675 -75.25 42.5625 C-70.14304279 41.92721426 -66.62715193 41.68642404 -62 44 C-57.64816965 48.46944739 -57.17832231 53.53293421 -56.39453125 59.48828125 C-56.26306358 61.9332089 -56.26306358 61.9332089 -55 63 C-54.93717926 64.48309137 -54.9369905 65.96896508 -54.96484375 67.453125 C-55.01484087 72.56919426 -54.83776265 77.64223628 -54.5625 82.75 C-54.51665771 83.61181885 -54.47081543 84.4736377 -54.42358398 85.36157227 C-54.32973452 87.09352142 -54.23415239 88.82537768 -54.13671875 90.55712891 C-54.05017378 92.10350199 -53.9664794 93.65003949 -53.88671875 95.19677734 C-53.78745462 97.11082872 -53.67540257 99.02420466 -53.5625 100.9375 C-53.50191406 101.99839844 -53.44132812 103.05929688 -53.37890625 104.15234375 C-52.99266932 107.05509345 -52.20831921 109.34365454 -51 112 C-50.87882812 111.30132812 -50.75765625 110.60265625 -50.6328125 109.8828125 C-50.46523438 108.97273438 -50.29765625 108.06265625 -50.125 107.125 C-49.88136719 105.76761719 -49.88136719 105.76761719 -49.6328125 104.3828125 C-49 102 -49 102 -47 100 C-46.24419219 98.1432966 -46.24419219 98.1432966 -45.625 96 C-43.07156142 88.00606918 -39.85796593 80.44466863 -36 73 C-35.33124429 71.66771324 -34.66458902 70.33437014 -34 69 C-30 61 -30 61 -29.00390625 59.01171875 C-28.32007001 57.64138543 -27.64054975 56.26889176 -26.96484375 54.89453125 C-24.43213547 49.76170421 -22.08058406 45.07075132 -18 41 C-16.8711087 39.64907558 -15.74630115 38.29473104 -14.625 36.9375 C-11.93347433 33.81919964 -9.98315092 32.25184743 -6 31 C-5.34 30.01 -4.68 29.02 -4 28 C-0.875 26.8125 -0.875 26.8125 2 26 C1.39613464 26.06933243 0.79226929 26.13866486 0.17010498 26.21009827 C-5.95721352 26.87380625 -12.01176637 27.17219555 -18.171875 27.24609375 C-20.07161985 27.27899437 -21.97135932 27.31220657 -23.87109375 27.34570312 C-26.82239559 27.3932412 -29.77366996 27.43781272 -32.72509766 27.47680664 C-35.60339341 27.5165779 -38.48129731 27.56805734 -41.359375 27.62109375 C-42.23760925 27.6295079 -43.11584351 27.63792206 -44.02069092 27.64659119 C-48.75737897 27.74177538 -52.52720776 28.27947254 -57 30 C-59.32694964 30.37531446 -61.65976685 30.71917202 -64 31 C-64 31.66 -64 32.32 -64 33 C-67.74080512 34.34668984 -70.24240876 35.1485473 -74.1875 34.375 C-77.30768928 32.84957413 -78.98261855 31.83927759 -81 29 C-82.07306029 25.26387037 -82.23617329 22.03916246 -81.375 18.25 C-79.58459724 15.32025004 -77.92246869 13.81842496 -75 12 C-71.1875 11.25 -71.1875 11.25 -68 11 C-68 10.34 -68 9.68 -68 9 C-63.59425333 7.33694798 -59.75766264 6.707521 -55.0625 6.5 C-51.26486646 6.28220037 -48.14675773 6.04455145 -44.5 4.9375 C-37.26360659 2.99918034 -29.28805677 3.42487967 -22 5 C-20.0003559 5.03772913 -17.99945939 5.04649906 -16 5 C-16 5.66 -16 6.32 -16 7 C-14.02 6.67 -12.04 6.34 -10 6 C-10 5.34 -10 4.68 -10 4 C-7.03 3.67 -4.06 3.34 -1 3 C-0.67 2.01 -0.34 1.02 0 0 Z M257 47 C253.15425806 50.637864 249.75099055 53.99603782 248.4375 59.25 C248.293125 59.8275 248.14875 60.405 248 61 C247.01 61.495 247.01 61.495 246 62 C246 63.65 246 65.3 246 67 C246.66 67 247.32 67 248 67 C248 66.34 248 65.68 248 65 C248.99 64.67 249.98 64.34 251 64 C251 62.68 251 61.36 251 60 C251.99 60 252.98 60 254 60 C255.71767682 56.01811282 257.41037341 52.03520597 259 48 C258.34 47.67 257.68 47.34 257 47 Z M127.75 53.0625 C125.81480509 56.31086289 124.91376502 59.34493994 124 63 C123.01 63.495 123.01 63.495 122 64 C122 68.29 122 72.58 122 77 C122.66 77.33 123.32 77.66 124 78 C124.309375 78.825 124.61875 79.65 124.9375 80.5 C125.288125 81.325 125.63875 82.15 126 83 C126.99 83.33 127.98 83.66 129 84 C129.33 84.99 129.66 85.98 130 87 C132.52821827 87.99405432 132.52821827 87.99405432 135.5 88.625 C140.92542373 89.92542373 140.92542373 89.92542373 142 91 C143.56172745 91.08685603 145.12729344 91.10702219 146.69140625 91.09765625 C147.63564453 91.09443359 148.57988281 91.09121094 149.55273438 91.08789062 C151.04256836 91.07532227 151.04256836 91.07532227 152.5625 91.0625 C153.55958984 91.05798828 154.55667969 91.05347656 155.58398438 91.04882812 C158.05604849 91.03700007 160.52799518 91.02051849 163 91 C162.7009375 89.99582031 162.401875 88.99164063 162.09375 87.95703125 C160.68650084 83.03785307 159.76257302 78.03033269 158.78125 73.01171875 C158.24831553 69.91037971 158.24831553 69.91037971 156 68 C155.1484375 66.0546875 155.1484375 66.0546875 154.375 63.875 C153.98441406 62.78832031 153.98441406 62.78832031 153.5859375 61.6796875 C153.29589844 60.84824219 153.29589844 60.84824219 153 60 C152.34 60 151.68 60 151 60 C150.67 58.35 150.34 56.7 150 55 C149.01 54.67 148.02 54.34 147 54 C146.34 53.01 145.68 52.02 145 51 C138.96941184 50.08280028 132.97899537 49.74409909 127.75 53.0625 Z M110 111 C111 114 111 114 111 114 Z M112 113 C110.12456646 116.86763446 110.12456646 116.86763446 111 121 C111.66 121 112.32 121 113 121 C112.98839844 121.83402344 112.97679687 122.66804688 112.96484375 123.52734375 C112.91211187 130.10376299 112.93460202 136.50107231 114 143 C114.66 143.66 115.32 144.32 116 145 C116.61838552 147.58090067 117.01653431 150.16539655 117.4375 152.78515625 C117.623125 153.51605469 117.80875 154.24695313 118 155 C118.66 155.33 119.32 155.66 120 156 C120.72159424 157.64363134 121.39351421 159.31050386 122 161 C122.66 161 123.32 161 124 161 C124.268125 161.969375 124.53625 162.93875 124.8125 163.9375 C125.204375 164.948125 125.59625 165.95875 126 167 C127.485 167.495 127.485 167.495 129 168 C129.53625 168.680625 130.0725 169.36125 130.625 170.0625 C133.74362972 172.6066453 135.86435951 172.62999448 139.8046875 172.4609375 C143.34794884 171.71697871 144.93784681 169.86040604 147 167 C147 166.01 147 165.02 147 164 C147.99 164 148.98 164 150 164 C150.61875 162.5459375 150.61875 162.5459375 151.25 161.0625 C152.14846608 158.95472412 153.06418587 156.86006989 154.01953125 154.77734375 C157.26521692 147.69032224 159.13570117 140.69558534 160.53515625 133.0390625 C161 131 161 131 162 130 C162.16666667 127 162.16666667 127 162 124 C160.45795587 122.45795587 158.95485186 122.80191944 156.80859375 122.71875 C155.94556641 122.68136719 155.08253906 122.64398438 154.19335938 122.60546875 C153.28392578 122.57066406 152.37449219 122.53585938 151.4375 122.5 C133.80446768 121.80446768 133.80446768 121.80446768 131 119 C128.15785396 118.37706388 125.31228687 117.9817635 122.43359375 117.5625 C121.63050781 117.376875 120.82742188 117.19125 120 117 C119.67 116.34 119.34 115.68 119 115 C116.6859378 114.26924352 114.35171131 113.59861742 112 113 Z M288 119 C288 119.66 288 120.32 288 121 C286.02 121.99 286.02 121.99 284 123 C284 123.66 284 124.32 284 125 C282.02 125.99 282.02 125.99 280 127 C280 127.66 280 128.32 280 129 C279.01 129.33 278.02 129.66 277 130 C277 130.66 277 131.32 277 132 C276.34 132 275.68 132 275 132 C274.5875 132.721875 274.175 133.44375 273.75 134.1875 C271.65264072 137.55825598 269.04025997 139.47723109 266 142 C264.76487921 144.13309192 264.76487921 144.13309192 264 146 C263.34 146.33 262.68 146.66 262 147 C261.566875 147.86625 261.13375 148.7325 260.6875 149.625 C259.36292622 152.27414755 258.15050819 154.19746776 256.375 156.5 C254.08472141 159.58809335 253.28458081 162.11072887 253 166 C252.34 166 251.68 166 251 166 C248.93149416 170.13701168 248.58875155 174.05918871 248.24609375 178.59765625 C248.01821338 180.82220268 247.60081471 182.84997711 247 185 C247.66 185 248.32 185 249 185 C249.33 187.31 249.66 189.62 250 192 C259.00279617 192.94199185 259.00279617 192.94199185 267.53125 190.72265625 C269.57172722 188.93723868 271.27445016 187.09026832 273 185 C273.6703125 184.28199219 274.340625 183.56398438 275.03125 182.82421875 C278.63477538 179.41231152 278.63477538 179.41231152 280 175 C280.66 175 281.32 175 282 175 C284.30542742 170.71849193 285.87789072 166.49660586 287.25390625 161.85546875 C288 160 288 160 290 159 C290.42032924 156.7436493 290.73700757 154.46755046 291 152.1875 C291.78674149 145.40887909 291.78674149 145.40887909 293.0390625 143.0078125 C295.4118292 138.05008044 294.49376886 131.38552552 294 126 C292.9751721 123.10374725 291.90556602 121.44150646 290 119 C289.34 119 288.68 119 288 119 Z M294 258 C293.9498877 258.99854004 293.89977539 259.99708008 293.84814453 261.02587891 C293.65901583 264.7499846 293.45882036 268.47342881 293.25537109 272.19677734 C293.16904226 273.80469223 293.08566775 275.41276869 293.00537109 277.02099609 C292.8890613 279.34001233 292.76194429 281.65822911 292.6328125 283.9765625 C292.58267502 285.04567368 292.58267502 285.04567368 292.53152466 286.13638306 C292.28064757 290.41459433 291.44025348 293.98052251 290 298 C289.63607371 300.13921029 289.63607371 300.13921029 289.55078125 302.1640625 C289.50759766 302.89367187 289.46441406 303.62328125 289.41992188 304.375 C289.38447266 305.1175 289.34902344 305.86 289.3125 306.625 C289.24192383 307.75035156 289.24192383 307.75035156 289.16992188 308.8984375 C288.97576119 312.48881866 289.01154209 315.54974955 290 319 C293.73487777 318.5020163 295.81237635 318.12508244 299 316 C299.22137393 313.37302936 299.28162025 310.99106036 299.1875 308.375 C299.17396484 307.66859375 299.16042969 306.9621875 299.14648438 306.234375 C299.1111104 304.48925872 299.05730221 302.74453392 299 301 C299.99 300.505 299.99 300.505 301 300 C303.04848406 291.54135155 302.11351553 282.04379071 302.0625 273.375 C302.05747303 271.87890775 302.05291225 270.38281387 302.04882812 268.88671875 C302.03792185 265.25777781 302.02072382 261.62889973 302 258 C299.36 258 296.72 258 294 258 Z " fill="#FAFAFA" transform="translate(420,55)"/>
<path d="M0 0 C4.18197649 -0.07509907 6.51681143 0.34057567 9.80395508 3.06420898 C12.02851219 7.24185183 11.92714129 10.59179164 11.55395508 15.25170898 C11.46629883 16.48276367 11.37864258 17.71381836 11.28833008 18.98217773 C10.80395508 22.06420898 10.80395508 22.06420898 8.80395508 24.06420898 C8.38633055 26.703364 8.0577023 29.28426116 7.80395508 31.93920898 C7.3736213 36.39396051 6.82149453 40.04489211 4.80395508 44.06420898 C4.40236792 46.74145671 4.06710663 49.37421534 3.80395508 52.06420898 C3.37193931 56.48037019 2.79672343 60.07867228 0.80395508 64.06420898 C0.35468517 66.82638696 -0.0217386 69.53703889 -0.32104492 72.31420898 C-0.4505957 73.43182617 -0.4505957 73.43182617 -0.58276367 74.57202148 C-0.79391359 76.40198745 -0.99589037 78.23300777 -1.19604492 80.06420898 C-1.85604492 80.06420898 -2.51604492 80.06420898 -3.19604492 80.06420898 C-3.25663086 80.91241211 -3.3172168 81.76061523 -3.37963867 82.63452148 C-4.2878418 95.34936523 -4.2878418 95.34936523 -5.19604492 108.06420898 C-5.85604492 108.06420898 -6.51604492 108.06420898 -7.19604492 108.06420898 C-7.26952148 109.85665039 -7.26952148 109.85665039 -7.34448242 111.68530273 C-8.32014669 133.18831075 -8.32014669 133.18831075 -11.19604492 136.06420898 C-12.13218022 141.86304705 -12.28553958 147.45290557 -12.19604492 153.31420898 C-12.05944475 173.35930872 -12.05944475 173.35930872 -15.19604492 178.06420898 C-15.61917775 180.25070444 -15.61917775 180.25070444 -15.75854492 182.66186523 C-15.87069336 183.98734375 -15.87069336 183.98734375 -15.98510742 185.33959961 C-16.12602638 187.20155655 -16.26665016 189.06353586 -16.40698242 190.92553711 C-16.48174805 191.80790039 -16.55651367 192.69026367 -16.63354492 193.59936523 C-16.69413086 194.40768799 -16.7547168 195.21601074 -16.81713867 196.04882812 C-17.19604492 198.06420898 -17.19604492 198.06420898 -19.19604492 200.06420898 C-20.30457034 206.62841834 -20.49569251 213.23639141 -20.71362305 219.88061523 C-20.97844523 225.84660929 -20.97844523 225.84660929 -23.19604492 228.06420898 C-23.44843537 230.32711881 -23.6007592 232.6017623 -23.69604492 234.87670898 C-23.93772804 240.61064098 -24.31003267 244.87400121 -28.13354492 249.31420898 C-31.59607828 252.25211607 -34.72706851 252.22040742 -39.10620117 252.34545898 C-40.83773437 252.4015332 -40.83773437 252.4015332 -42.60424805 252.45874023 C-45.04434896 252.52916538 -47.48445315 252.59947752 -49.92456055 252.66967773 C-51.07762695 252.70706055 -52.23069336 252.74444336 -53.41870117 252.78295898 C-54.47839111 252.81325195 -55.53808105 252.84354492 -56.62988281 252.87475586 C-59.18412945 252.89985718 -59.18412945 252.89985718 -61.19604492 254.06420898 C-70.0417007 255.16863768 -77.92644346 255.92335633 -86.19604492 252.06420898 C-87.12416992 251.75483398 -88.05229492 251.44545898 -89.00854492 251.12670898 C-91.76848541 249.78616646 -93.23795557 248.44160635 -95.19604492 246.06420898 C-95.95385742 242.90014648 -95.95385742 242.90014648 -96.32104492 239.43920898 C-96.61623048 234.72262478 -96.61623048 234.72262478 -99.19604492 231.06420898 C-99.57495117 228.5456543 -99.57495117 228.5456543 -99.75854492 225.39233398 C-99.87069336 223.68303711 -99.87069336 223.68303711 -99.98510742 221.93920898 C-100.08952148 220.14483398 -100.08952148 220.14483398 -100.19604492 218.31420898 C-100.33454679 215.96480697 -100.48015341 213.61581086 -100.63354492 211.26733398 C-100.69413086 210.22222656 -100.7547168 209.17711914 -100.81713867 208.1003418 C-101.21985612 204.87341256 -102.13700157 202.13116146 -103.19604492 199.06420898 C-103.60668945 196.63891602 -103.60668945 196.63891602 -103.82885742 194.32202148 C-103.91264648 193.48413086 -103.99643555 192.64624023 -104.08276367 191.78295898 C-104.16139648 190.92702148 -104.2400293 190.07108398 -104.32104492 189.18920898 C-104.40741211 188.31006836 -104.4937793 187.43092773 -104.58276367 186.52514648 C-104.79338799 184.3720979 -104.99557201 182.21822649 -105.19604492 180.06420898 C-105.52604492 180.72420898 -105.85604492 181.38420898 -106.19604492 182.06420898 C-106.85604492 182.06420898 -107.51604492 182.06420898 -108.19604492 182.06420898 C-108.18444336 182.63268555 -108.1728418 183.20116211 -108.16088867 183.78686523 C-108.01750997 196.05598543 -108.01750997 196.05598543 -110.17260742 199.72827148 C-111.99595794 203.88996465 -111.99995197 208.46423948 -112.40698242 212.95288086 C-112.78569434 216.6975582 -113.07189092 218.87797798 -115.19604492 222.06420898 C-115.60752748 224.82222491 -115.60752748 224.82222491 -115.72338867 227.93920898 C-115.82876953 229.66397461 -115.82876953 229.66397461 -115.9362793 231.42358398 C-116.06777845 233.8504594 -116.1953836 236.27754896 -116.3190918 238.70483398 C-116.39063477 239.85467773 -116.46217773 241.00452148 -116.53588867 242.18920898 C-116.59123779 243.24366211 -116.64658691 244.29811523 -116.70361328 245.38452148 C-117.25332378 248.37590594 -117.9172215 249.16341725 -120.19604492 251.06420898 C-120.50541992 251.76545898 -120.81479492 252.46670898 -121.13354492 253.18920898 C-122.19604492 255.06420898 -122.19604492 255.06420898 -124.00953674 255.6723175 C-126.13689913 256.05360819 -128.08361357 256.19748675 -130.24267578 256.20947266 C-131.41926003 256.21904243 -131.41926003 256.21904243 -132.61961365 256.22880554 C-133.87754478 256.23047478 -133.87754478 256.23047478 -135.16088867 256.23217773 C-136.46637413 256.23717033 -136.46637413 256.23717033 -137.79823303 256.24226379 C-139.63647942 256.24731972 -141.47473495 256.24967253 -143.31298828 256.24951172 C-146.11986448 256.25169833 -148.92634759 256.26986841 -151.7331543 256.28881836 C-153.52156441 256.29175256 -155.30997639 256.29373718 -157.09838867 256.29467773 C-157.9349852 256.30186325 -158.77158173 256.30904877 -159.63352966 256.31645203 C-165.23001302 256.29458867 -169.26332379 255.94324342 -173.44604492 251.87670898 C-177.74951147 244.96042347 -176.29405657 235.91603118 -176.19604492 228.06420898 C-177.18604492 227.73420898 -178.17604492 227.40420898 -179.19604492 227.06420898 C-180.20891246 218.36440034 -180.30226036 209.80928005 -180.19604492 201.06420898 C-180.85604492 201.06420898 -181.51604492 201.06420898 -182.19604492 201.06420898 C-182.90603631 197.08234064 -183.40534016 193.16023754 -183.69604492 189.12670898 C-183.77983398 188.00651367 -183.86362305 186.88631836 -183.94995117 185.73217773 C-184.12314076 183.15082817 -184.27808141 180.57330565 -184.41088867 177.98999023 C-184.44827148 177.31508545 -184.4856543 176.64018066 -184.52416992 175.94482422 C-184.62891788 174.02405525 -184.72326905 172.1027278 -184.81713867 170.18139648 C-184.9782507 166.90313255 -184.9782507 166.90313255 -187.19604492 164.06420898 C-187.49902344 161.86621094 -187.49902344 161.86621094 -187.57495117 159.30249023 C-187.60854736 158.35510986 -187.64214355 157.40772949 -187.67675781 156.43164062 C-187.70374756 155.42351318 -187.7307373 154.41538574 -187.75854492 153.37670898 C-187.83021716 151.29854069 -187.90314148 149.22041522 -187.97729492 147.14233398 C-188.01209961 146.1155957 -188.0469043 145.08885742 -188.08276367 144.03100586 C-188.24082351 139.89147318 -188.48567391 135.76005745 -188.75854492 131.62670898 C-188.88422852 129.71051758 -188.88422852 129.71051758 -189.01245117 127.75561523 C-189.07303711 126.86745117 -189.13362305 125.97928711 -189.19604492 125.06420898 C-189.85604492 125.06420898 -190.51604492 125.06420898 -191.19604492 125.06420898 C-191.22110107 124.4303125 -191.24615723 123.79641602 -191.27197266 123.14331055 C-190.51763485 104.3480461 -190.51763485 104.3480461 -195.19604492 87.06420898 C-195.51635207 84.58114101 -195.73261553 82.18653116 -195.86401367 79.69311523 C-195.90794754 78.97437729 -195.95188141 78.25563934 -195.99714661 77.51512146 C-196.08789988 75.99650021 -196.17419445 74.47760686 -196.25634766 72.95849609 C-196.38292443 70.63808382 -196.52568093 68.31908357 -196.6706543 65.99975586 C-196.75690735 64.52259844 -196.84222489 63.04538604 -196.92651367 61.56811523 C-196.99046577 60.53044762 -196.99046577 60.53044762 -197.05570984 59.47181702 C-197.22763069 56.14848544 -197.26780872 53.23899914 -196.19604492 50.06420898 C-196.85604492 49.73420898 -197.51604492 49.40420898 -198.19604492 49.06420898 C-200.54137704 40.64329722 -200.53254323 31.79969787 -200.50854492 23.12670898 C-200.5246582 21.9349707 -200.54077148 20.74323242 -200.55737305 19.51538086 C-200.55801758 18.3674707 -200.55866211 17.21956055 -200.55932617 16.03686523 C-200.56230713 15.00827393 -200.56528809 13.97968262 -200.56835938 12.91992188 C-200.1350461 9.596338 -199.21730708 7.72217317 -197.19604492 5.06420898 C-194.49039412 4.16232538 -192.9317751 3.93792728 -190.15527344 3.93481445 C-189.34755997 3.93166229 -188.5398465 3.92851013 -187.70765686 3.92526245 C-186.83886398 3.92728668 -185.97007111 3.92931091 -185.07495117 3.93139648 C-183.73049171 3.9299614 -183.73049171 3.9299614 -182.35887146 3.92849731 C-180.46336802 3.92781687 -178.56786224 3.92966172 -176.67236328 3.93383789 C-173.77330271 3.93918178 -170.8743975 3.93389155 -167.9753418 3.92749023 C-166.13354458 3.92815116 -164.29174746 3.92943263 -162.44995117 3.93139648 C-161.58318253 3.92937225 -160.71641388 3.92734802 -159.82337952 3.92526245 C-159.01251389 3.92841461 -158.20164825 3.93156677 -157.36621094 3.93481445 C-156.6557814 3.93561005 -155.94535187 3.93640564 -155.21339417 3.93722534 C-151.91848825 4.1446258 -149.80835774 4.52162123 -147.30932617 6.73608398 C-146.71506836 7.42186523 -146.12081055 8.10764648 -145.50854492 8.81420898 C-144.90655273 9.48967773 -144.30456055 10.16514648 -143.68432617 10.86108398 C-140.72148421 15.24702326 -140.9608752 20.34236024 -140.63354492 25.50170898 C-140.54975586 26.77916992 -140.4659668 28.05663086 -140.37963867 29.37280273 C-140.21852279 32.61226028 -140.16096412 35.82174024 -140.19604492 39.06420898 C-139.53604492 39.06420898 -138.87604492 39.06420898 -138.19604492 39.06420898 C-137.53604492 42.03420898 -136.87604492 45.00420898 -136.19604492 48.06420898 C-136.01428711 47.10321289 -136.01428711 47.10321289 -135.82885742 46.12280273 C-135.06621564 42.18639784 -134.28055683 38.34757246 -133.13354492 34.50170898 C-132.35559828 31.64923797 -132.02725802 29.35017061 -131.82104492 26.43920898 C-131.4125464 22.21805756 -130.24857096 20.11673502 -127.19604492 17.06420898 C-126.61854492 16.34233398 -126.04104492 15.62045898 -125.44604492 14.87670898 C-122.22508327 12.28204543 -119.23419584 11.87183917 -115.19604492 11.06420898 C-115.19604492 10.40420898 -115.19604492 9.74420898 -115.19604492 9.06420898 C-111.36921024 7.78859742 -107.75448309 7.9017876 -103.76635742 7.89624023 C-102.93901093 7.89291183 -102.11166443 7.88958344 -101.25924683 7.88615417 C-99.50918127 7.88109285 -97.75910607 7.8787456 -96.0090332 7.87890625 C-93.3381347 7.87672295 -90.66765143 7.85856784 -87.99682617 7.83959961 C-86.29500466 7.83666485 -84.5931812 7.83468061 -82.89135742 7.83374023 C-82.0953714 7.82655472 -81.29938538 7.8193692 -80.47927856 7.81196594 C-75.15041299 7.83380468 -71.35252929 8.47877971 -66.95385742 11.71264648 C-64.59757917 14.86482317 -64.36997332 17.88334017 -64.07104492 21.68920898 C-63.85505537 26.85622 -63.85505537 26.85622 -61.19604492 31.06420898 C-60.81713867 33.58276367 -60.81713867 33.58276367 -60.63354492 36.73608398 C-60.52139648 38.44538086 -60.52139648 38.44538086 -60.40698242 40.18920898 C-60.30256836 41.98358398 -60.30256836 41.98358398 -60.19604492 43.81420898 C-60.05754306 46.163611 -59.91193643 48.5126071 -59.75854492 50.86108398 C-59.69795898 51.90619141 -59.63737305 52.95129883 -59.57495117 54.02807617 C-59.1731023 57.24804563 -58.25047285 60.00444697 -57.19604492 63.06420898 C-57.19604492 64.05420898 -57.19604492 65.04420898 -57.19604492 66.06420898 C-56.26130786 61.55387577 -55.33644501 57.0645596 -54.69604492 52.50170898 C-54.31194607 49.86102939 -53.81814207 47.39865669 -53.19604492 44.81420898 C-52.15861173 40.37460516 -51.79881219 35.99277461 -51.53979492 31.44702148 C-51.19604492 29.06420898 -51.19604492 29.06420898 -49.19604492 26.06420898 C-48.74901259 23.84836352 -48.3814125 21.61578937 -48.07104492 19.37670898 C-47.81967773 17.6074707 -47.81967773 17.6074707 -47.56323242 15.80249023 C-47.44206055 14.89885742 -47.32088867 13.99522461 -47.19604492 13.06420898 C-46.20604492 12.73420898 -45.21604492 12.40420898 -44.19604492 12.06420898 C-43.51541992 11.38358398 -42.83479492 10.70295898 -42.13354492 10.00170898 C-41.49416992 9.36233398 -40.85479492 8.72295898 -40.19604492 8.06420898 C-39.53604492 8.06420898 -38.87604492 8.06420898 -38.19604492 8.06420898 C-38.19604492 7.40420898 -38.19604492 6.74420898 -38.19604492 6.06420898 C-37.50897461 5.87084961 -36.8219043 5.67749023 -36.11401367 5.47827148 C-35.21295898 5.21788086 -34.3119043 4.95749023 -33.38354492 4.68920898 C-32.49022461 4.43397461 -31.5969043 4.17874023 -30.67651367 3.91577148 C-27.99136596 3.11154237 -27.99136596 3.11154237 -25.19604492 1.06420898 C-22.85522461 0.74536133 -22.85522461 0.74536133 -20.11791992 0.65014648 C-19.12147461 0.61147461 -18.1250293 0.57280273 -17.09838867 0.53295898 C-15.53797852 0.48655273 -15.53797852 0.48655273 -13.94604492 0.43920898 C-12.40883789 0.38120117 -12.40883789 0.38120117 -10.84057617 0.32202148 C-7.22750368 0.19182067 -3.61379333 0.10566177 0 0 Z " fill="#FCFCFC" transform="translate(510.196044921875,277.935791015625)"/>
<path d="M0 0 C9.57 0 19.14 0 29 0 C29 0.99 29 1.98 29 3 C29.66386719 2.97679687 30.32773437 2.95359375 31.01171875 2.9296875 C38.92767752 2.76790148 43.34685533 4.44485252 49.9375 8.68359375 C52.02796823 10.05824734 52.02796823 10.05824734 54.44921875 11.2890625 C57.63819784 13.42807145 59.52150087 15.86383781 61.8125 18.9375 C62.99779297 20.49791016 62.99779297 20.49791016 64.20703125 22.08984375 C66 25 66 25 66 29 C66.66 29 67.32 29 68 29 C69.35779259 34.91609627 70.52912361 40.82619008 71.53515625 46.8125 C71.78543707 48.96699855 71.78543707 48.96699855 73 50 C73.12530784 52.58810419 73.18609345 55.15079632 73.20532227 57.74047852 C73.21522186 58.55419418 73.22512146 59.36790985 73.23532104 60.20628357 C73.26718025 62.93046087 73.29186208 65.65465392 73.31640625 68.37890625 C73.33702803 70.29947808 73.35802566 72.22004591 73.37937927 74.14060974 C73.42352209 78.20382245 73.46435722 82.26705061 73.50268555 86.33032227 C73.55066187 91.40936909 73.60450818 96.48832885 73.66064739 101.56729126 C73.88271096 121.75426206 74.04106051 141.94064541 74.0546875 162.12890625 C74.056403 163.35799304 74.056403 163.35799304 74.05815315 164.61190987 C74.0970046 199.80599079 74.0970046 199.80599079 72 204 C72 205.32 72 206.64 72 208 C71.34 208 70.68 208 70 208 C70.01160156 208.79664063 70.02320313 209.59328125 70.03515625 210.4140625 C70.13220899 221.81082675 70.13220899 221.81082675 69 226 C68.34 226.33 67.68 226.66 67 227 C66.42241845 228.98709515 66.42241845 228.98709515 66.0625 231.3125 C65.32575377 234.98462886 64.46319731 237.1262698 62 240 C61.28837557 241.64797236 60.60968047 243.31165408 60 245 C59.34 245 58.68 245 58 245 C57.71125 245.804375 57.4225 246.60875 57.125 247.4375 C56 250 56 250 54 251 C53.67 251.99 53.34 252.98 53 254 C52.01 254.33 51.02 254.66 50 255 C49.34 255.99 48.68 256.98 48 258 C45.67793475 258.70491267 43.34406932 259.37212429 41 260 C40.34 260.66 39.68 261.32 39 262 C33.40950033 263.41783154 27.63439084 263.1441577 21.90625 263.1328125 C20.84136353 263.13376923 19.77647705 263.13472595 18.67932129 263.13571167 C16.43351177 263.13639052 14.18770026 263.13455682 11.94189453 263.13037109 C8.51199927 263.12501872 5.08223496 263.13032612 1.65234375 263.13671875 C-0.53385445 263.13605792 -2.72005258 263.13477665 -4.90625 263.1328125 C-5.92827515 263.13483673 -6.95030029 263.13686096 -8.0032959 263.13894653 C-17.74732819 263.10699186 -17.74732819 263.10699186 -22 262 C-22.33 261.34 -22.66 260.68 -23 260 C-25.2408573 259.39737901 -27.48570975 259.04392817 -29.7734375 258.66015625 C-32.3208432 257.9048728 -33.2566481 256.95436279 -35 255 C-35.763125 254.54625 -36.52625 254.0925 -37.3125 253.625 C-40.54838502 251.66841836 -43.19684309 249.54239813 -46 247 C-46 246.34 -46 245.68 -46 245 C-46.66 245 -47.32 245 -48 245 C-48.45375 244.030625 -48.9075 243.06125 -49.375 242.0625 C-50.65786221 238.92920418 -50.65786221 238.92920418 -53 238 C-53.40729228 235.67843403 -53.74438677 233.3431213 -54 231 C-54.99 230.67 -55.98 230.34 -57 230 C-57.12117187 229.32453125 -57.24234375 228.6490625 -57.3671875 227.953125 C-57.53476563 227.06109375 -57.70234375 226.1690625 -57.875 225.25 C-58.11863281 223.92742187 -58.11863281 223.92742187 -58.3671875 222.578125 C-58.87676462 220.04579395 -58.87676462 220.04579395 -60.00073242 218.11962891 C-63.32269408 211.07314195 -62.12539648 201.48063596 -62.0625 193.875 C-62.05798828 192.823125 -62.05347656 191.77125 -62.04882812 190.6875 C-62.03718011 188.12493779 -62.02082553 185.56250123 -62 183 C-62.66 182.67 -63.32 182.34 -64 182 C-64.37890625 180.03125 -64.37890625 180.03125 -64.5625 177.5 C-64.80828717 174.32984709 -65.10112921 171.19965713 -65.5 168.04296875 C-66.3653138 160.41326895 -66.35472161 152.71116021 -66.51757812 145.04101562 C-66.55173828 143.83767578 -66.58589844 142.63433594 -66.62109375 141.39453125 C-66.6461499 140.31018799 -66.67120605 139.22584473 -66.69702148 138.10864258 C-66.86964375 135.00057814 -66.86964375 135.00057814 -68.00708008 132.23193359 C-69.38208124 127.75633356 -69.28606613 123.55015102 -69.265625 118.89453125 C-69.26753845 117.93350998 -69.2694519 116.97248871 -69.27142334 115.98234558 C-69.27277983 113.95933774 -69.26912096 111.93632103 -69.26074219 109.91333008 C-69.24999988 106.81246536 -69.26067378 103.71217534 -69.2734375 100.61132812 C-69.2721165 98.64322789 -69.26955534 96.67512801 -69.265625 94.70703125 C-69.26967346 93.77889114 -69.27372192 92.85075104 -69.27789307 91.89448547 C-69.27158875 91.03316513 -69.26528442 90.17184479 -69.25878906 89.28442383 C-69.25719788 88.52752762 -69.25560669 87.77063141 -69.25396729 86.99079895 C-69 85 -69 85 -67 82 C-66.72688656 79.7587804 -66.55121446 77.50493354 -66.4375 75.25 C-65.81688879 64.90291311 -65.81688879 64.90291311 -65 61 C-64.01 60.505 -64.01 60.505 -63 60 C-62.38255961 57.25524825 -62.38255961 57.25524825 -62 54.0625 C-61.22008253 48.22008253 -61.22008253 48.22008253 -59 46 C-58.21050909 44.04162099 -58.21050909 44.04162099 -57.5625 41.8125 C-56.2716855 37.74248286 -54.74121318 33.89700093 -53 30 C-52.34 30 -51.68 30 -51 30 C-50.34 28.02 -49.68 26.04 -49 24 C-48.01 24 -47.02 24 -46 24 C-45.773125 23.2575 -45.54625 22.515 -45.3125 21.75 C-43.7410439 18.4574253 -42.00004284 17.02502891 -39 15 C-38.34 15 -37.68 15 -37 15 C-36.7215625 14.13375 -36.7215625 14.13375 -36.4375 13.25 C-34.36448638 10.00528302 -31.45557167 8.48711712 -28 7 C-26.0075675 6.62406934 -24.0081326 6.28020455 -22 6 C-21.34 5.34 -20.68 4.68 -20 4 C-16.0161954 2.71875303 -11.9001597 2.66113935 -7.75 2.4375 C-7.00492188 2.39431641 -6.25984375 2.35113281 -5.4921875 2.30664062 C-3.661651 2.20103275 -1.83084824 2.10005799 0 2 C0 1.34 0 0.68 0 0 Z M2 43 C1.30816567 78.15897614 0.89073145 113.31137342 0.87661743 148.47744751 C0.87500814 151.11167783 0.87145524 153.74589931 0.86743164 156.38012695 C0.86153198 160.57375602 0.86138116 164.76734876 0.86568069 168.96097946 C0.8666635 170.49984086 0.86612277 172.03870422 0.86384201 173.57756424 C0.85457179 181.17828596 0.95264496 188.76487626 1.38330078 196.35498047 C1.45171173 197.56185516 1.52012268 198.76872986 1.59060669 200.01217651 C1.80277157 203.17715435 1.80277157 203.17715435 4 206 C4.38499891 207.65549531 4.72793135 209.3222433 5 211 C5.66 210.67 6.32 210.34 7 210 C7.03758423 208.47862427 7.03758423 208.47862427 7.07592773 206.92651367 C7.17009645 203.16368973 7.27029405 199.40104631 7.37231445 195.63842773 C7.41562749 194.00988996 7.45730518 192.38130784 7.49731445 190.75268555 C7.55510503 188.41181065 7.61877398 186.07115824 7.68359375 183.73046875 C7.70030624 183.00224411 7.71701874 182.27401947 7.73423767 181.52372742 C7.82467238 178.43833061 8.01723993 175.94828022 9 173 C9 171.865625 9 170.73125 9 169.5625 C9 166 9 166 9.48242188 164.28979492 C10.2658494 160.82386719 10.2191595 157.33843875 10.28125 153.80078125 C10.29934219 152.98540894 10.31743439 152.17003662 10.33607483 151.32995605 C10.39470617 148.65753981 10.44728984 145.98503898 10.5 143.3125 C10.57999315 139.58328776 10.6630877 135.85414624 10.74609375 132.125 C10.76655258 131.18686966 10.78701141 130.24873932 10.80809021 129.28218079 C10.9399172 123.33297685 11.09742678 117.38519791 11.28515625 111.4375 C11.30851044 110.69751266 11.33186462 109.95752533 11.35592651 109.19511414 C11.46561509 105.7586126 11.57908164 102.32227468 11.6953125 98.88598633 C11.93466596 91.49064003 11.99588223 84.13532905 11.82006836 76.73706055 C12 74 12 74 14 72 C14.27686065 69.96532566 14.27686065 69.96532566 14.1953125 67.6484375 C14.18886719 66.79765625 14.18242187 65.946875 14.17578125 65.0703125 C14.15902344 64.18085938 14.14226562 63.29140625 14.125 62.375 C14.11597656 61.4778125 14.10695313 60.580625 14.09765625 59.65625 C14.0740497 57.43723414 14.0411231 55.21874923 14 53 C13.34 53 12.68 53 12 53 C12.33 52.01 12.66 51.02 13 50 C11.26212435 47.26513223 11.26212435 47.26513223 9 45 C8.34 45 7.68 45 7 45 C7 44.34 7 43.68 7 43 C5.35 43 3.7 43 2 43 Z " fill="#FBFBFB" transform="translate(228,275)"/>
<path d="M0 0 C1.39858024 -0.0032239 2.79716016 -0.00658877 4.19573975 -0.01008606 C7.1034829 -0.01602176 10.01119655 -0.01793141 12.91894531 -0.01733398 C16.62616788 -0.01723188 20.33320102 -0.03095865 24.04037857 -0.04810619 C26.91958472 -0.05926628 29.79874533 -0.06125208 32.67797089 -0.06072426 C34.04458019 -0.06189545 35.41119101 -0.06626823 36.77777863 -0.07405663 C43.86442308 -0.11071546 50.34439474 -0.07223954 57.109375 2.16796875 C57.604375 2.66296875 57.604375 2.66296875 58.109375 3.16796875 C60.00125891 3.4651387 61.8981678 3.7305774 63.796875 3.98046875 C68.9690241 4.79939236 72.1574938 5.75012555 76.109375 9.16796875 C76.604375 10.15796875 76.604375 10.15796875 77.109375 11.16796875 C78.099375 11.49796875 79.089375 11.82796875 80.109375 12.16796875 C80.796875 14.23046875 80.796875 14.23046875 81.109375 16.16796875 C82.099375 16.16796875 83.089375 16.16796875 84.109375 16.16796875 C88.59887056 21.3329997 92.80142644 29.39559884 93.359375 36.23046875 C93.276875 36.86984375 93.194375 37.50921875 93.109375 38.16796875 C93.769375 38.16796875 94.429375 38.16796875 95.109375 38.16796875 C97.20541833 45.03241979 97.38566294 51.37535451 97.33984375 58.5234375 C97.33938553 59.70206863 97.33892731 60.88069977 97.3384552 62.095047 C97.33544366 64.582011 97.32759042 67.06897331 97.31518555 69.5559082 C97.2970182 73.32575312 97.29467559 77.09535037 97.29492188 80.86523438 C97.29000213 83.29297084 97.28417184 85.72070566 97.27734375 88.1484375 C97.27623093 89.25930222 97.2751181 90.37016693 97.27397156 91.51469421 C97.14870521 112.60897343 97.14870521 112.60897343 94.109375 117.16796875 C93.65224459 119.58237735 93.65224459 119.58237735 93.4765625 122.2734375 C93.39277344 123.25634766 93.30898437 124.23925781 93.22265625 125.25195312 C93.14402344 126.27611328 93.06539062 127.30027344 92.984375 128.35546875 C92.85482422 129.90911133 92.85482422 129.90911133 92.72265625 131.49414062 C92.51052051 134.05155483 92.30641081 136.60935416 92.109375 139.16796875 C91.449375 139.16796875 90.789375 139.16796875 90.109375 139.16796875 C89.99980469 139.73386719 89.89023438 140.29976562 89.77734375 140.8828125 C89.61878906 141.61628906 89.46023437 142.34976563 89.296875 143.10546875 C89.07064453 144.20181641 89.07064453 144.20181641 88.83984375 145.3203125 C88.59878906 145.93003906 88.35773438 146.53976562 88.109375 147.16796875 C87.119375 147.49796875 86.129375 147.82796875 85.109375 148.16796875 C84.779375 149.15796875 84.449375 150.14796875 84.109375 151.16796875 C83.119375 151.49796875 82.129375 151.82796875 81.109375 152.16796875 C80.779375 153.15796875 80.449375 154.14796875 80.109375 155.16796875 C78.77604167 155.50130208 77.44270833 155.83463542 76.109375 156.16796875 C75.779375 157.15796875 75.449375 158.14796875 75.109375 159.16796875 C72.609375 160.60546875 72.609375 160.60546875 69.109375 162.16796875 C68.0265625 162.66683594 68.0265625 162.66683594 66.921875 163.17578125 C61.47898436 165.6581807 56.3340764 167.8713419 50.359375 168.66796875 C47.03097451 168.85212679 47.03097451 168.85212679 45.109375 171.16796875 C42.9453125 171.58203125 42.9453125 171.58203125 40.484375 171.79296875 C39.66710937 171.86773437 38.84984375 171.9425 38.0078125 172.01953125 C37.06808594 172.09300781 37.06808594 172.09300781 36.109375 172.16796875 C36.11984863 172.97089355 36.13032227 173.77381836 36.14111328 174.60107422 C36.31354947 189.95226069 36.2530028 205.13548639 34.82080078 220.43896484 C34.26193263 226.47693247 34.03411473 232.39881458 34.14746094 238.46386719 C34.07584867 243.54833809 33.74497061 248.48126077 30.109375 252.23046875 C28.109375 253.16796875 28.109375 253.16796875 26.109375 253.16796875 C25.779375 253.82796875 25.449375 254.48796875 25.109375 255.16796875 C19.29670413 256.38457428 13.33196564 256.48475019 7.4140625 256.7890625 C4.24450398 257.15247524 2.01779367 257.93044624 -0.890625 259.16796875 C-9.23913915 260.67810954 -19.05223533 261.72831451 -26.890625 258.16796875 C-26.890625 257.50796875 -26.890625 256.84796875 -26.890625 256.16796875 C-27.48875 255.89984375 -28.086875 255.63171875 -28.703125 255.35546875 C-31.0249036 254.09507465 -32.3400559 253.30923084 -33.890625 251.16796875 C-35.07913952 245.18551309 -34.96648856 239.30960184 -34.890625 233.23046875 C-34.28078465 217.49184733 -34.28078465 217.49184733 -36.890625 202.16796875 C-38.02059993 195.27091959 -38.01907259 188.48257974 -37.98828125 181.50537109 C-37.98682098 180.25160675 -37.98536072 178.99784241 -37.9838562 177.70608521 C-37.98005635 174.98452088 -37.97444997 172.26303115 -37.96578979 169.54148483 C-37.9520946 165.1847738 -37.94633295 160.82807274 -37.94165039 156.47134399 C-37.9287296 145.61576761 -37.90453502 134.76021897 -37.88024902 123.90466309 C-37.85842046 114.05738642 -37.8410662 104.21011636 -37.83067703 94.36282063 C-37.8281276 92.13117946 -37.82484663 89.89954018 -37.82150269 87.66790009 C-37.79368841 66.92541791 -37.98938932 46.20075155 -38.71069336 25.46835327 C-38.73726517 24.59596889 -38.76383698 23.72358452 -38.79121399 22.82476425 C-38.83977984 21.23784655 -38.89680139 19.65115046 -38.96476746 18.06494522 C-39.09149007 13.68966901 -38.75729007 10.15503351 -36.890625 6.16796875 C-31.290625 3.16796875 -31.290625 3.16796875 -27.890625 3.16796875 C-27.560625 2.50796875 -27.230625 1.84796875 -26.890625 1.16796875 C-18.14737742 -0.45475286 -8.85758969 0.00750781 0 0 Z M29.109375 50.16796875 C27.75884833 54.21954877 28.17541047 57.75680948 28.421875 61.98046875 C28.45732422 62.77517578 28.49277344 63.56988281 28.52929688 64.38867188 C28.72362 67.89518917 28.98417557 70.80931474 30.1484375 74.14453125 C31.49597448 78.38434271 31.27480206 82.31345034 31.171875 86.73046875 C31.05416093 96.18192753 31.26026441 105.59955645 31.609375 115.04296875 C31.65715088 116.33920166 31.70492676 117.63543457 31.75415039 118.97094727 C31.86951789 122.0367509 31.98771042 125.10240951 32.109375 128.16796875 C32.769375 126.84796875 33.429375 125.52796875 34.109375 124.16796875 C35.099375 124.16796875 36.089375 124.16796875 37.109375 124.16796875 C38.30509281 118.960173 38.4635242 113.76716446 38.73046875 108.4453125 C39.109375 105.16796875 39.109375 105.16796875 40.11865234 103.46166992 C41.5704445 100.10050992 41.37483724 96.78869748 41.33984375 93.19140625 C41.33938553 92.42494781 41.33892731 91.65848938 41.3384552 90.86880493 C41.33544101 89.25334112 41.32757965 87.63788001 41.31518555 86.02246094 C41.29688865 83.5448177 41.29467627 81.06754762 41.29492188 78.58984375 C41.29000782 77.01952801 41.28417999 75.4492148 41.27734375 73.87890625 C41.27623093 73.13619476 41.2751181 72.39348328 41.27397156 71.62826538 C41.30663239 67.77070559 41.30663239 67.77070559 40.109375 64.16796875 C39.449375 64.16796875 38.789375 64.16796875 38.109375 64.16796875 C37.779375 59.87796875 37.449375 55.58796875 37.109375 51.16796875 C34.469375 50.83796875 31.829375 50.50796875 29.109375 50.16796875 Z " fill="#FBFBFB" transform="translate(52.890625,273.83203125)"/>
<path d="M0 0 C1.77777328 0.00068733 1.77777328 0.00068733 3.59146118 0.00138855 C6.09435022 0.00439893 8.59723758 0.01224866 11.10009766 0.0246582 C14.86758324 0.04274561 18.63481953 0.0451686 22.40234375 0.04492188 C33.11116412 0.05968888 43.81653892 0.12772006 54.515625 0.6171875 C55.26991791 0.64730423 56.02421082 0.67742096 56.80136108 0.70845032 C60.77884343 0.92545804 63.91993176 1.58254479 67.5390625 3.23046875 C70.10781691 3.57401037 72.64841086 3.72951728 75.234375 3.88671875 C77.5390625 4.23046875 77.5390625 4.23046875 80.5390625 6.23046875 C80.5390625 6.89046875 80.5390625 7.55046875 80.5390625 8.23046875 C81.5290625 8.56046875 82.5190625 8.89046875 83.5390625 9.23046875 C84.72832242 12.79824852 84.72002832 16.06992364 84.7421875 19.78515625 C84.74788757 20.52371857 84.75358765 21.26228088 84.75946045 22.02322388 C84.76889895 23.58496676 84.77543987 25.14672945 84.77929688 26.70849609 C84.78899896 29.08987401 84.82003028 31.47038719 84.8515625 33.8515625 C84.85809344 35.37108864 84.86334356 36.89062094 84.8671875 38.41015625 C84.8795343 39.11864716 84.8918811 39.82713806 84.90460205 40.55709839 C84.88491571 44.95633523 84.24481874 47.73340645 81.5390625 51.23046875 C79.26352087 52.36823957 77.82396734 52.41168138 75.29296875 52.51171875 C74.03709961 52.56779297 74.03709961 52.56779297 72.75585938 52.625 C71.87994141 52.65980469 71.00402344 52.69460938 70.1015625 52.73046875 C68.37353579 52.79943656 66.64565519 52.8721966 64.91796875 52.94921875 C64.1504126 52.97951172 63.38285645 53.00980469 62.59204102 53.04101562 C60.34022979 53.17023868 60.34022979 53.17023868 57.5390625 54.23046875 C54.5690625 54.23046875 51.5990625 54.23046875 48.5390625 54.23046875 C48.5390625 66.77046875 48.5390625 79.31046875 48.5390625 92.23046875 C55.22463261 92.47940018 55.22463261 92.47940018 61.91088867 92.70849609 C62.75111572 92.74410645 63.59134277 92.7797168 64.45703125 92.81640625 C65.31063232 92.84782715 66.1642334 92.87924805 67.04370117 92.91162109 C72.06776108 93.55357611 76.01579665 95.6093344 79.5390625 99.23046875 C80.74910665 104.77119723 80.49084824 110.00333379 80.1015625 115.60546875 C79.99627408 117.21729142 79.89340096 118.82927371 79.79296875 120.44140625 C79.74285645 121.23256836 79.69274414 122.02373047 79.64111328 122.83886719 C79.53856648 125.24209326 79.57265846 127.61531157 79.62890625 130.01953125 C79.65634364 135.34938937 78.17039773 139.26338963 74.5390625 143.23046875 C71.35723418 144.14726674 69.71156539 144.37417097 66.5390625 144.23046875 C64.85164117 144.20402014 63.16412094 144.18335682 61.4765625 144.16796875 C60.70183594 144.13574219 59.92710937 144.10351562 59.12890625 144.0703125 C55.75407657 144.27901237 52.75649013 145.22625327 49.5390625 146.23046875 C48.77008402 165.57764002 48.39232499 184.86563186 48.5390625 204.23046875 C49.22943604 204.21999512 49.91980957 204.20952148 50.63110352 204.19873047 C53.78788549 204.15691178 56.94460895 204.13106073 60.1015625 204.10546875 C61.18759766 204.08871094 62.27363281 204.07195312 63.39257812 204.0546875 C75.06401388 203.98373652 75.06401388 203.98373652 79.5390625 206.23046875 C81.6610331 211.67401423 81.7588535 216.55766343 81.55078125 222.33984375 C81.52812698 223.18846985 81.50547272 224.03709595 81.48213196 224.91143799 C81.43244415 226.69322552 81.37752605 228.47487417 81.31762695 230.25634766 C81.22638473 232.98578667 81.15189476 235.71529988 81.08007812 238.4453125 C81.02962063 240.1810182 80.97822143 241.91669683 80.92578125 243.65234375 C80.89130135 244.87579498 80.89130135 244.87579498 80.85612488 246.1239624 C80.74266052 249.38164263 80.57580434 252.12024324 79.5390625 255.23046875 C74.86165255 256.41750298 70.32939469 256.37496074 65.5390625 256.36328125 C64.66693115 256.36423798 63.7947998 256.3651947 62.89624023 256.36618042 C61.050455 256.3668598 59.20466734 256.36502237 57.35888672 256.36083984 C54.57644052 256.35553995 51.7941596 256.3607661 49.01171875 256.3671875 C39.4691604 256.37082484 30.0461257 256.14056791 20.5390625 255.23046875 C19.20347974 255.13179375 17.86757979 255.03720027 16.53125 254.94921875 C15.50257813 254.87703125 14.47390625 254.80484375 13.4140625 254.73046875 C12.35960937 254.65828125 11.30515625 254.58609375 10.21875 254.51171875 C7.5390625 254.23046875 7.5390625 254.23046875 4.5390625 253.23046875 C3.10579951 253.10738021 1.66828519 253.0299542 0.23046875 252.984375 C-1.01379883 252.93506836 -1.01379883 252.93506836 -2.28320312 252.88476562 C-4.02265839 252.82370932 -5.76224934 252.76639989 -7.50195312 252.71289062 C-8.33275391 252.67873047 -9.16355469 252.64457031 -10.01953125 252.609375 C-10.77548584 252.58431885 -11.53144043 252.5592627 -12.31030273 252.53344727 C-15.91268541 252.02594847 -17.90674221 250.69119483 -20.6887207 248.37841797 C-23.49573264 243.39238519 -22.93055973 238.48268731 -22.81640625 232.86328125 C-22.80837479 231.63753387 -22.80034332 230.4117865 -22.79206848 229.14889526 C-22.76308536 225.21731364 -22.7070228 221.28671099 -22.6484375 217.35546875 C-22.6054185 213.48861952 -22.56833351 209.62181332 -22.53694153 205.75485229 C-22.51588015 203.35350529 -22.48773003 200.95220264 -22.45024109 198.55105591 C-22.36865485 191.36811319 -22.58495837 184.25568922 -22.94775391 177.08398438 C-23.70373641 161.51723138 -23.62573876 145.94117655 -23.62819457 130.3601985 C-23.62891356 127.79026678 -23.63106315 125.22034014 -23.63369179 122.6504097 C-23.64287023 113.66439737 -23.64703451 104.67839968 -23.64624023 95.69238281 C-23.64563523 87.34012434 -23.65628822 78.98792955 -23.6719839 70.63568723 C-23.68504808 63.42501091 -23.6904249 56.21435554 -23.68978482 49.00366747 C-23.68953034 44.71304786 -23.69235674 40.42248561 -23.70296288 36.1318779 C-23.71262968 32.11464438 -23.71273292 28.09752348 -23.70544624 24.08028603 C-23.7044 22.60848768 -23.70676565 21.13668233 -23.7128067 19.66489601 C-23.72052069 17.65571108 -23.71468512 15.64648777 -23.70817566 13.63729858 C-23.70872043 12.51400839 -23.70926519 11.39071819 -23.70982647 10.2333889 C-23.45484125 7.15691572 -22.85169091 4.9764372 -21.4609375 2.23046875 C-15.36810528 -1.00899783 -6.68064769 -0.04290368 0 0 Z " fill="#FBFBFB" transform="translate(553.4609375,277.76953125)"/>
<path d="M0 0 C4.34723463 2.95531264 7.12181717 7.1989054 8.68359375 12.14453125 C8.895 12.72203125 9.10640625 13.29953125 9.32421875 13.89453125 C10.15165005 19.07497068 7.73794654 24.46130328 5.68359375 29.14453125 C3.64436655 31.6777046 1.55170567 33.59744625 -1.31640625 35.14453125 C-1.97640625 35.14453125 -2.63640625 35.14453125 -3.31640625 35.14453125 C-3.31640625 35.80453125 -3.31640625 36.46453125 -3.31640625 37.14453125 C-8.91383267 39.38350182 -14.03543735 40.43348332 -19.72265625 38.19921875 C-24.13485179 35.92149443 -27.42203401 33.94360759 -29.31640625 29.14453125 C-29.31640625 28.15453125 -29.31640625 27.16453125 -29.31640625 26.14453125 C-30.30640625 25.81453125 -31.29640625 25.48453125 -32.31640625 25.14453125 C-32.31640625 21.18453125 -32.31640625 17.22453125 -32.31640625 13.14453125 C-31.65640625 12.81453125 -30.99640625 12.48453125 -30.31640625 12.14453125 C-29.96578125 11.09265625 -29.61515625 10.04078125 -29.25390625 8.95703125 C-27.49595404 4.82669694 -25.05386428 2.58881221 -21.26171875 0.2421875 C-15.00363943 -2.09006753 -6.28249999 -2.32018128 0 0 Z " fill="#F7F7F7" transform="translate(235.31640625,34.85546875)"/>
<path d="" fill="#E8E8E8" transform="translate(0,0)"/>
<path d="" fill="#E8E8E8" transform="translate(0,0)"/>
<path d="" fill="#E8E8E8" transform="translate(0,0)"/>
<path d="" fill="#E8E8E8" transform="translate(0,0)"/>
<path d="" fill="#E8E8E8" transform="translate(0,0)"/>
<path d="" fill="#E8E8E8" transform="translate(0,0)"/>
<path d="" fill="#E8E8E8" transform="translate(0,0)"/>
<path d="" fill="#E8E8E8" transform="translate(0,0)"/>
<path d="" fill="#E8E8E8" transform="translate(0,0)"/>
<path d="" fill="#E8E8E8" transform="translate(0,0)"/>
<path d="" fill="#E8E8E8" transform="translate(0,0)"/>
<path d="" fill="#E8E8E8" transform="translate(0,0)"/>
<path d="" fill="#E8E8E8" transform="translate(0,0)"/>
<path d="" fill="#E8E8E8" transform="translate(0,0)"/>
<path d="" fill="#E8E8E8" transform="translate(0,0)"/>
<path d="" fill="#E8E8E8" transform="translate(0,0)"/>
<path d="" fill="#E8E8E8" transform="translate(0,0)"/>
<path d="" fill="#E8E8E8" transform="translate(0,0)"/>
<path d="" fill="#E8E8E8" transform="translate(0,0)"/>
<path d="" fill="#E8E8E8" transform="translate(0,0)"/>
<path d="" fill="#E8E8E8" transform="translate(0,0)"/>
<path d="" fill="#E8E8E8" transform="translate(0,0)"/>
<path d="" fill="#E8E8E8" transform="translate(0,0)"/>
<path d="" fill="#E8E8E8" transform="translate(0,0)"/>
</svg>
